<svg width="13" height="22" viewBox="0 0 13 22" version="1.1" xmlns="http://www.w3.org/2000/svg" xmlns:xlink="http://www.w3.org/1999/xlink">
<title>mobile-phone-3</title>
<desc>Created using Figma</desc>
<g id="Canvas" transform="translate(-37037 237)">
<g id="mobile-phone-3">
<g id="Filled_Icons">
<g id="Shape">
<use xlink:href="#path0_fill" transform="translate(37037.8 -236.04)" fill="#FFFFFF"/>
</g>
</g>
</g>
</g>
<defs>
<path id="path0_fill" fill-rule="evenodd" d="M 9.60156 0L 9.60156 1.92C 10.6602 1.92 11.5195 2.78111 11.5195 3.84L 11.5195 18.24C 11.5195 19.2998 10.6602 20.16 9.60156 20.16L 1.92188 20.16C 0.859375 20.16 0 19.2998 0 18.24L 0 3.84C 0 2.78111 0.859375 1.92 1.92188 1.92L 7.67969 1.92L 7.67969 0L 9.60156 0ZM 2.87891 15.36C 2.87891 15.8909 3.30859 16.32 3.83984 16.32C 4.36719 16.32 4.80078 15.8909 4.80078 15.36C 4.80078 14.8291 4.36719 14.4 3.83984 14.4C 3.30859 14.4 2.87891 14.8291 2.87891 15.36ZM 3.83984 12.48C 3.30859 12.48 2.87891 12.0509 2.87891 11.52C 2.87891 10.9891 3.30859 10.56 3.83984 10.56C 4.36719 10.56 4.80078 10.9891 4.80078 11.52C 4.80078 12.0509 4.36719 12.48 3.83984 12.48ZM 6.71875 15.36C 6.71875 15.8909 7.14844 16.32 7.67969 16.32C 8.20703 16.32 8.64062 15.8909 8.64062 15.36C 8.64062 14.8291 8.20703 14.4 7.67969 14.4C 7.14844 14.4 6.71875 14.8291 6.71875 15.36ZM 7.67969 12.48C 7.14844 12.48 6.71875 12.0509 6.71875 11.52C 6.71875 10.9891 7.14844 10.56 7.67969 10.56C 8.20703 10.56 8.64062 10.9891 8.64062 11.52C 8.64062 12.0509 8.20703 12.48 7.67969 12.48ZM 1.92188 7.67999L 9.60156 7.67999L 9.60156 3.84L 1.92188 3.84L 1.92188 7.67999Z"/>
</defs>
</svg>
