<svg width="19" height="18" viewBox="0 0 19 18" version="1.1" xmlns="http://www.w3.org/2000/svg" xmlns:xlink="http://www.w3.org/1999/xlink">
<g id="Canvas" fill="none">
<g id="Line_Icons">
<g id="Group">
<g id="Shape">
<path fill-rule="evenodd" clip-rule="evenodd" d="M 2 18L 16 18C 17.1035 18 18 17.102 18 16L 18 2C 18 0.897995 17.1035 0 16 0L 2 0C 0.896484 0 0 0.897995 0 2L 0 16C 0 17.103 0.896484 18 2 18ZM 2 16L 2 2L 16 2L 16.002 16L 2 16Z" transform="translate(0.599609 0)" fill="white"/>
</g>
<g id="Shape_2">
<path fill-rule="evenodd" clip-rule="evenodd" d="M 9.85742 5L 12 5L 12 7L 9.85938 6.99899C 9.76562 7.36301 9.62109 7.703 9.43555 8.01801L 10.9512 9.535L 9.53711 10.949L 8.02148 9.433C 7.70312 9.619 7.36328 9.763 7.00195 9.858L 7.00195 12L 5.00195 12L 5.00195 9.85899C 4.63672 9.76401 4.29688 9.62 3.98047 9.43401L 2.46484 10.95L 1.05078 9.536L 2.56641 8.019C 2.38086 7.70399 2.23633 7.36301 2.14258 7L 0 7L 0 5L 2.14258 5C 2.23633 4.636 2.38086 4.29601 2.56641 3.98L 1.05078 2.464L 2.46484 1.05L 3.98047 2.567C 4.29688 2.38 4.63672 2.237 5 2.142L 5 0L 7 0L 7 2.142C 7.36328 2.23599 7.70312 2.38 8.01953 2.56599L 9.53516 1.05L 10.9492 2.465L 9.43359 3.981C 9.53711 4.15598 9.62695 4.33896 9.70312 4.52928C 9.76367 4.68159 9.81641 4.83862 9.85742 5ZM 4 6C 4 7.103 4.89648 8 6 8C 7.10352 8 8 7.10201 8 6C 8 4.89799 7.10352 4 6 4C 4.89648 4 4 4.89799 4 6Z" transform="translate(3.59961 3)" fill="white"/>
</g>
</g>
</g>
</g>
</svg>

