<svg width="25" height="25" viewBox="0 0 25 25" version="1.1" xmlns="http://www.w3.org/2000/svg" xmlns:xlink="http://www.w3.org/1999/xlink">
<g id="Canvas" fill="none">
<g id="user-settings">
<g id="Line_Icons">
<g id="Group">
<g id="Group_2">
<g id="Shape">
<path fill-rule="evenodd" clip-rule="evenodd" d="M 0 4C 0 6.205 1.79492 8 4 8C 6.20508 8 8 6.205 8 4C 8 1.795 6.20508 0 4 0C 1.79492 0 0 1.795 0 4ZM 2 4C 2 2.896 2.89648 2 4 2C 5.10352 2 6 2.896 6 4C 6 5.103 5.10352 6 4 6C 2.89648 6 2 5.103 2 4Z" transform="translate(4.40234 8.006)" fill="white"/>
</g>
<g id="Shape_2">
<path fill-rule="evenodd" clip-rule="evenodd" d="M 0 6L 0 7L 16 7L 16 6C 16 2.467 12.7109 0 8 0C 3.28906 0 0 2.467 0 6ZM 8 2C 11.0078 2 13.2441 3.192 13.8418 5L 2.1582 5C 2.75586 3.192 4.99219 2 8 2Z" transform="translate(0.402344 17.006)" fill="white"/>
</g>
</g>
<g id="Shape_3">
<path fill-rule="evenodd" clip-rule="evenodd" d="M 10.9004 5L 12.002 5L 12.002 7L 10.9004 7C 10.7695 7.63699 10.5156 8.228 10.168 8.752L 10.9512 9.534L 9.53906 10.949L 8.75586 10.166C 8.23047 10.514 7.63867 10.768 7.00195 10.898L 7.00195 12.001L 5.00195 12.001L 5.00195 10.898C 4.36523 10.77 3.77344 10.515 3.24805 10.167L 2.4668 10.951L 1.05078 9.53799L 1.83398 8.754C 1.63281 8.45059 1.46289 8.12514 1.33008 7.78131C 1.23438 7.5302 1.15625 7.26929 1.10156 7L 0 7L 0 5L 1.10156 5C 1.23242 4.36301 1.48633 3.771 1.83398 3.24699L 1.05078 2.464L 2.46484 1.05L 3.24805 1.83299C 3.77148 1.48599 4.36328 1.231 5.00195 1.10201L 5.00195 0L 7.00195 0L 7.00195 1.10201C 7.63867 1.23 8.22852 1.485 8.75195 1.832L 9.53711 1.048L 10.9512 2.46201L 10.168 3.246C 10.5156 3.771 10.7695 4.362 10.9004 5ZM 4 6C 4 7.104 4.89453 8 6 8C 7.10352 8 8 7.103 8 6C 8 4.896 7.10352 4 6 4C 4.89453 4 4 4.896 4 6Z" transform="translate(12.4004 0.0059967)" fill="white"/>
</g>
</g>
</g>
</g>
</g>
</svg>

