<svg width="18" height="11" viewBox="0 0 18 11" fill="none" xmlns="http://www.w3.org/2000/svg">
<path fill-rule="evenodd" clip-rule="evenodd" d="M16 0H2C0.894531 0 0 0.895432 0 2V3C0 4.10457 0.894531 5 2 5H16C17.1055 5 18 4.10457 18 3V2C18 0.895432 17.1055 0 16 0ZM1.73047 3.13794C1.58594 2.96481 1.5 2.74249 1.5 2.5C1.5 1.94771 1.94922 1.5 2.5 1.5C3.05078 1.5 3.5 1.94771 3.5 2.5C3.5 3.05229 3.05078 3.5 2.5 3.5C2.19141 3.5 1.91406 3.35912 1.73047 3.13794ZM11 2.5C11 2.77614 11.2227 3 11.5 3C11.7773 3 12 2.77614 12 2.5C12 2.45497 11.9922 2.41135 11.9805 2.36984L11.9336 2.25439C11.8906 2.17879 11.8281 2.1154 11.7539 2.07082C11.6797 2.02585 11.5938 2 11.5 2C11.2227 2 11 2.22386 11 2.5ZM13.5 3C13.2227 3 13 2.77614 13 2.5C13 2.4369 13.0117 2.37654 13.0352 2.32095C13.0586 2.25603 13.0977 2.19763 13.1445 2.149C13.2344 2.05702 13.3594 2 13.5 2C13.7773 2 14 2.22386 14 2.5C14 2.61345 13.9648 2.71808 13.9023 2.80199C13.8086 2.9223 13.6641 3 13.5 3ZM15 2.5C15 2.77614 15.2227 3 15.5 3C15.7773 3 16 2.77614 16 2.5C16 2.31088 15.8945 2.14629 15.7383 2.06133C15.668 2.02223 15.5859 2 15.5 2C15.2227 2 15 2.22386 15 2.5Z" fill="white"/>
<path fill-rule="evenodd" clip-rule="evenodd" d="M16 0H2C0.894531 0 0 0.895432 0 2V3C0 4.10457 0.894531 5 2 5H16C17.1055 5 18 4.10457 18 3V2C18 0.895432 17.1055 0 16 0ZM2.5 3.5C2.30859 3.5 2.12891 3.44661 1.97656 3.35397C1.69141 3.17833 1.5 2.86159 1.5 2.5C1.5 1.94771 1.94922 1.5 2.5 1.5C2.71094 1.5 2.90625 1.56581 3.06641 1.67809C3.32812 1.85866 3.5 2.15944 3.5 2.5C3.5 3.05229 3.05078 3.5 2.5 3.5ZM11 2.5C11 2.77614 11.2227 3 11.5 3C11.6094 3 11.7109 2.964 11.7969 2.90308C11.9219 2.81206 12 2.66541 12 2.5C12 2.22386 11.7773 2 11.5 2C11.2227 2 11 2.22386 11 2.5ZM13.5 3C13.2227 3 13 2.77614 13 2.5C13 2.22386 13.2227 2 13.5 2C13.7773 2 14 2.22386 14 2.5C14 2.77614 13.7773 3 13.5 3ZM15 2.5C15 2.77614 15.2227 3 15.5 3C15.6055 3 15.7031 2.96674 15.7852 2.91005C15.9141 2.81966 16 2.66969 16 2.5C16 2.22386 15.7773 2 15.5 2C15.2227 2 15 2.22386 15 2.5Z" transform="translate(0 6)" fill="white"/>
</svg>
