<svg width="15" height="15" viewBox="0 0 15 15" version="1.1" xmlns="http://www.w3.org/2000/svg" xmlns:xlink="http://www.w3.org/1999/xlink">
<title>action-people-user-add</title>
<desc>Created using Figma</desc>
<g id="Canvas" transform="translate(-7422 109)">
<g id="action-people-user-add">
<g id="Oval">
<use xlink:href="#path0_fill" transform="translate(7425.12 -109)" fill="#FFFFFF"/>
</g>
<g id="Shape">
<use xlink:href="#path1_fill" transform="translate(7422 -100.876)" fill="#FFFFFF"/>
</g>
<g id="Shape">
<use xlink:href="#path2_fill" transform="translate(7430.12 -100.875)" fill="#FFFFFF"/>
</g>
</g>
</g>
<defs>
<path id="path0_fill" d="M 3.75 7.5C 5.82107 7.5 7.5 5.82107 7.5 3.75C 7.5 1.67893 5.82107 0 3.75 0C 1.67893 0 0 1.67893 0 3.75C 0 5.82107 1.67893 7.5 3.75 7.5Z"/>
<path id="path1_fill" d="M 7.5 3.43894C 7.49139 2.3937 7.88785 1.38573 8.60625 0.626442C 8.68675 0.542708 8.71416 0.421238 8.67743 0.311049C 8.6407 0.200859 8.54589 0.120132 8.43125 0.101442C 7.91608 0.02585 7.39561 -0.00759422 6.875 0.00144201C 5.01083 0.0497687 3.18348 0.531214 1.5375 1.40769C 0.596353 1.88635 0.00259081 2.85182 0 3.90769L 0 4.37644C 1.51553e-17 5.0668 0.559644 5.62644 1.25 5.62644L 7.6125 5.62644C 7.71871 5.62564 7.81724 5.57095 7.8741 5.48124C 7.93096 5.39153 7.93836 5.27908 7.89375 5.18269C 7.63325 4.63838 7.49867 4.04238 7.5 3.43894Z"/>
<path id="path2_fill" fill-rule="evenodd" d="M 0 3.4375C 0 1.53902 1.53906 0 3.4375 0C 5.33447 0.00344086 6.87158 1.54045 6.875 3.4375C 6.875 5.33598 5.33594 6.875 3.4375 6.875C 1.53906 6.875 0 5.33598 0 3.4375ZM 3.75 3.75L 4.6875 3.75C 4.85986 3.75 5 3.61009 5 3.4375C 5 3.26491 4.85986 3.125 4.6875 3.125L 3.75 3.125L 3.75 2.1875C 3.75 2.01491 3.60986 1.875 3.4375 1.875C 3.26514 1.875 3.125 2.01491 3.125 2.1875L 3.125 3.125L 2.1875 3.125C 2.01514 3.125 1.875 3.26491 1.875 3.4375C 1.875 3.61009 2.01514 3.75 2.1875 3.75L 3.125 3.75L 3.125 4.6875C 3.125 4.86009 3.26514 5 3.4375 5C 3.60986 5 3.75 4.86009 3.75 4.6875L 3.75 3.75Z"/>
</defs>
</svg>
