<svg width="22" height="22" viewBox="0 0 22 22" version="1.1" xmlns="http://www.w3.org/2000/svg" xmlns:xlink="http://www.w3.org/1999/xlink">
<g id="Canvas" fill="none">
<g id="time-add-clock-alarm-set">
<g id="_Path_">
<path d="M 15.0404 9.06242C 14.9874 9.33343 14.7247 9.51013 14.4537 9.45711C 14.1827 9.40409 14.006 9.14141 14.0591 8.87041C 14.7571 5.30253 12.4272 1.81967 8.87041 1.12378C 5.30253 0.425714 1.81967 2.75562 1.12378 6.31242C 0.425714 9.8803 2.75562 13.3632 6.31447 14.0595C 7.4791 14.2924 8.63688 14.2139 9.71491 13.8289C 9.97497 13.736 10.2611 13.8715 10.354 14.1316C 10.4468 14.3916 10.3113 14.6777 10.0513 14.7706C 8.80083 15.2172 7.459 15.3082 6.12041 15.0404C 2.02046 14.2383 -0.661501 10.2292 0.142386 6.12041C 0.94455 2.02046 4.95367 -0.661501 9.06242 0.142386C 13.1624 0.94455 15.8443 4.95367 15.0404 9.06242Z" transform="translate(2.61719 3.36692)" fill="black"/>
</g>
<g id="_Group_">
<g id="_Path_2">
<path d="M 1.59471 1.867L 2.31512 1.14658C 2.51038 0.951318 2.82697 0.951318 3.02223 1.14658C 3.21749 1.34184 3.21749 1.65843 3.02223 1.85369L 0.855562 4.02035C 0.485516 4.3904 -0.132372 4.01527 0.0252171 3.51624L 1.02522 0.349568C 1.10837 0.0862437 1.38925 -0.0598124 1.65257 0.0233427C 1.9159 0.106498 2.06195 0.387375 1.9788 0.6507L 1.59471 1.867Z" transform="translate(3.41406 15.2499)" fill="black"/>
</g>
</g>
<g id="_Group_2">
<g id="_Path_3">
<path fill-rule="evenodd" clip-rule="evenodd" d="M 6.57812 1.04037C 5.80859 0.366745 4.85547 0 3.83203 0C 1.72266 0 0 1.72385 0 3.83334C 0 4.91033 0.40625 5.87334 1.17188 6.54295C 1.36719 6.71629 1.66797 6.70635 1.85547 6.52022L 6.60547 1.77022C 6.80859 1.5657 6.79688 1.23084 6.57812 1.04037ZM 1 3.83334C 1 2.27615 2.27734 1 3.83203 1C 4.42969 1 4.99219 1.16293 5.48828 1.47157L 1.51172 5.44933C 1.17578 5.011 1 4.45619 1 3.83334Z" transform="translate(0.917969 0.916664)" fill="black"/>
</g>
</g>
<g id="_Group_3">
<g id="_Path_4">
<path fill-rule="evenodd" clip-rule="evenodd" d="M 6.75 3.83334C 6.75 1.72385 5.02734 0 2.91797 0C 1.89453 0 0.941406 0.366745 0.171875 1.04037C -0.046875 1.23084 -0.0585938 1.5657 0.144531 1.77022L 4.89453 6.52022C 5.08203 6.70635 5.38281 6.71629 5.57812 6.54295C 6.34375 5.87334 6.75 4.91033 6.75 3.83334ZM 2.91797 1C 4.47266 1 5.75 2.27615 5.75 3.83334C 5.75 4.45619 5.57422 5.011 5.23828 5.44933L 1.26172 1.47157C 1.75781 1.16293 2.32031 1 2.91797 1Z" transform="translate(12.668 0.916664)" fill="black"/>
</g>
</g>
<g id="_Group_4">
<g id="_Group_5">
<g id="_Path_5">
<path fill-rule="evenodd" clip-rule="evenodd" d="M 0 4.66666C 0 7.244 2.08984 9.33334 4.66797 9.33334C 7.24219 9.33334 9.33203 7.244 9.33203 4.66666C 9.33203 2.08934 7.24219 0 4.66797 0C 2.08984 0 0 2.08934 0 4.66666ZM 8.33203 4.66666C 8.33203 6.69171 6.69141 8.33334 4.66797 8.33334C 2.64062 8.33334 1 6.69171 1 4.66666C 1 2.64162 2.64062 1 4.66797 1C 6.69141 1 8.33203 2.64162 8.33203 4.66666Z" transform="translate(11.75 11.75)" fill="#DE4E2A"/>
</g>
</g>
<g id="_Path_6">
<path d="M 0.5 1C 0.223858 1 0 0.776142 0 0.5C 0 0.223858 0.223858 0 0.5 0L 3.83333 0C 4.10948 0 4.33333 0.223858 4.33333 0.5C 4.33333 0.776142 4.10948 1 3.83333 1L 0.5 1Z" transform="translate(14.25 15.9167)" fill="#DE4E2A"/>
</g>
<g id="_Path_7">
<path d="M 0 0.5C 0 0.223858 0.223858 0 0.5 0C 0.776142 0 1 0.223858 1 0.5L 1 3.83333C 1 4.10948 0.776142 4.33333 0.5 4.33333C 0.223858 4.33333 0 4.10948 0 3.83333L 0 0.5Z" transform="translate(15.9141 14.25)" fill="#DE4E2A"/>
</g>
</g>
<g id="_Path_8">
<path fill-rule="evenodd" clip-rule="evenodd" d="M 0 0.916664C 0 1.42293 0.410156 1.83334 0.917969 1.83334C 1.42188 1.83334 1.83203 1.42293 1.83203 0.916664C 1.83203 0.410408 1.42188 0 0.917969 0C 0.410156 0 0 0.410408 0 0.916664ZM 0.832031 0.916672C 0.832031 0.870644 0.871094 0.833336 0.914062 0.833336C 0.960938 0.833336 1 0.870644 1 0.916672C 1 0.962692 0.960938 1 0.914062 1C 0.871094 1 0.832031 0.962692 0.832031 0.916672Z" transform="translate(9.25 10.0833)" fill="#DE4E2A"/>
</g>
<g id="_Path_9">
<path d="M 3.35355 7.22978C 3.54882 7.42504 3.54882 7.74162 3.35355 7.93689C 3.15829 8.13215 2.84171 8.13215 2.64645 7.93689L 0.146447 5.43689C 0.0526784 5.34312 0 5.21594 0 5.08333L 0 0.5C 0 0.223858 0.223858 0 0.5 0C 0.776142 0 1 0.223858 1 0.5L 1 4.87623L 3.35355 7.22978Z" transform="translate(9.66797 5.91666)" fill="#DE4E2A"/>
</g>
</g>
</g>
</svg>

