<svg width="13" height="16" viewBox="0 0 13 16" version="1.1" xmlns="http://www.w3.org/2000/svg" xmlns:xlink="http://www.w3.org/1999/xlink">
<g id="Canvas" fill="none">
<g id="icon-location-pin">
<g id="Line_Icons">
<g id="Group">
<g id="Shape">
<path d="M 1.44 5.04L 2.88 5.04L 2.88 3.6L 4.32 3.6L 4.32 5.04L 5.76 5.04L 5.76 2.88L 7.2 2.88L 3.6 0L 0 2.88L 1.44 2.88L 1.44 5.04Z" transform="translate(3.04102 3.32)" fill="#DF512D"/>
</g>
<g id="Shape_2">
<path fill-rule="evenodd" clip-rule="evenodd" d="M 1.43945 0L 10.0801 0C 10.875 0 11.5195 0.646561 11.5195 1.44L 11.5195 9.36C 11.5195 10.1542 10.875 10.8 10.0801 10.8L 8.32812 10.8L 5.75977 15.079L 3.19336 10.8L 1.43945 10.8C 0.646484 10.8 0 10.1542 0 9.36L 0 1.44C 0 0.646561 0.646484 0 1.43945 0ZM 7.51172 9.36L 10.0801 9.36L 10.0801 1.44L 1.43945 1.44L 1.43945 9.36L 4.00781 9.36L 5.75977 12.281L 7.51172 9.36Z" transform="translate(0.880859 0.440002)" fill="#111111"/>
</g>
</g>
</g>
</g>
</g>
</svg>

