<svg width="25" height="25" viewBox="0 0 25 25" version="1.1" xmlns="http://www.w3.org/2000/svg" xmlns:xlink="http://www.w3.org/1999/xlink">
<title>Group</title>
<desc>Created using Figma</desc>
<g id="Canvas" transform="translate(-7026 224)">
<g id="Group">
<g id="Group">
<g id="Shape">
<use xlink:href="#path0_fill" transform="translate(7030.4 -215.994)" fill="#A9AAAD"/>
</g>
<g id="Shape">
<use xlink:href="#path1_fill" transform="translate(7026.4 -206.994)" fill="#A9AAAD"/>
</g>
</g>
<g id="Shape">
<use xlink:href="#path2_fill" transform="translate(7038.4 -223.994)" fill="#A9AAAD"/>
</g>
</g>
</g>
<defs>
<path id="path0_fill" fill-rule="evenodd" d="M 0 4C 0 6.205 1.79492 8 4 8C 6.20605 8 8 6.205 8 4C 8 1.795 6.20508 0 4 0C 1.79492 0 0 1.795 0 4ZM 2 4C 2 2.896 2.896 2 4 2C 5.104 2 6 2.896 6 4C 6 5.103 5.104 6 4 6C 2.896 6 2 5.103 2 4Z"/>
<path id="path1_fill" fill-rule="evenodd" d="M 0 6L 0 7L 16 7L 16 6C 16 2.467 12.7109 0 8 0C 3.28906 0 0 2.467 0 6ZM 13.8433 5L 2.15918 5C 2.75732 3.192 4.99316 2 8.00098 2C 11.0093 2 13.2441 3.192 13.8433 5Z"/>
<path id="path2_fill" fill-rule="evenodd" d="M 10.8999 5L 12.002 5L 12.002 7L 10.8999 7C 10.77 7.63699 10.5161 8.228 10.168 8.752L 10.9521 9.534L 9.53906 10.949L 8.75488 10.166C 8.23096 10.514 7.63916 10.768 7.00195 10.898L 7.00195 12.001L 5.00195 12.001L 5.00195 10.898C 4.36523 10.77 3.77295 10.515 3.24805 10.167L 2.46582 10.951L 1.05078 9.53799L 1.83398 8.754C 1.48682 8.229 1.23291 7.638 1.10205 7L 0 7L 0 5L 1.10205 5C 1.23193 4.36301 1.48584 3.771 1.83398 3.24699L 1.05078 2.464L 2.46484 1.05L 3.24805 1.83299C 3.77197 1.48599 4.36279 1.231 5.00098 1.10201L 5.00098 0L 7.00098 0L 7.00098 1.10201C 7.63818 1.23 8.229 1.485 8.75195 1.832L 9.53711 1.048L 10.9512 2.46201L 10.167 3.246C 10.5151 3.771 10.769 4.362 10.8999 5ZM 4 6C 4 7.104 4.89502 8 6 8C 7.104 8 8 7.103 8 6C 8 4.896 7.104 4 6 4C 4.89502 4 4 4.896 4 6Z"/>
</defs>
</svg>
