<svg width="24" height="24" viewBox="0 0 24 24" version="1.1" xmlns="http://www.w3.org/2000/svg" xmlns:xlink="http://www.w3.org/1999/xlink">
<title>icon - air cons</title>
<desc>Created using Figma</desc>
<g id="Canvas" transform="translate(444 110)">
<g id="icon - air cons">
<g id="Oval 2">
<use xlink:href="#path0_fill" transform="translate(-444 -110)" fill="#DE4E2A"/>
</g>
<g id="Shape">
<use xlink:href="#path1_fill" transform="translate(-440.067 -102.067)" fill="#FFFFFF"/>
</g>
<g id="Rectangle-path" opacity="0.5">
<use xlink:href="#path2_fill" transform="translate(-438.733 -97.4)" fill="#FFFFFF"/>
</g>
<g id="Shape" opacity="0.5">
<use xlink:href="#path3_fill" transform="translate(-438.733 -100.067)" fill="#FFFFFF"/>
</g>
<g id="Oval" opacity="0.5">
<use xlink:href="#path4_fill" transform="translate(-426.733 -100.733)" fill="#FFFFFF"/>
</g>
</g>
</g>
<defs>
<path id="path0_fill" fill-rule="evenodd" d="M 12 24C 18.6274 24 24 18.6274 24 12C 24 5.37258 18.6274 0 12 0C 5.37258 0 0 5.37258 0 12C 0 18.6274 5.37258 24 12 24Z"/>
<path id="path1_fill" fill-rule="evenodd" d="M 14.7333 0L 1.39999 0C 0.645752 0 0 0.645752 0 1.4L 0 6.73333C 0 7.48758 0.645752 8.13333 1.39999 8.13333L 14.7333 8.13333C 15.4876 8.13333 16.1333 7.48758 16.1333 6.73333L 16.1333 1.4C 16.1333 0.645752 15.4876 0 14.7333 0ZM 0.799988 1.4C 0.799988 1.08759 1.08755 0.800003 1.39999 0.800003L 14.7333 0.800003C 15.0457 0.800003 15.3333 1.08759 15.3333 1.4L 15.3333 6.73334C 15.3333 7.04575 15.0457 7.33334 14.7333 7.33334L 1.39999 7.33334C 1.08755 7.33334 0.799988 7.04575 0.799988 6.73334L 0.799988 1.4Z"/>
<path id="path2_fill" fill-rule="evenodd" d="M 13.0667 0L 0.399994 0C 0.179077 0 0 0.179085 0 0.400002L 0 1.73333C 0 1.95425 0.179077 2.13333 0.399994 2.13333L 13.0667 2.13333C 13.2876 2.13333 13.4667 1.95425 13.4667 1.73333L 13.4667 0.400002C 13.4667 0.179085 13.2876 0 13.0667 0ZM 0.799988 1.33334L 0.799988 0.800003L 12.6667 0.800003L 12.6667 1.33334L 0.799988 1.33334Z"/>
<path id="path3_fill" d="M 0.4 0.8C 0.179086 0.8 0 0.620914 0 0.4C 0 0.179086 0.179086 0 0.4 0L 10.4 0C 10.6209 0 10.8 0.179086 10.8 0.4C 10.8 0.620914 10.6209 0.8 10.4 0.8L 0.4 0.8Z"/>
<path id="path4_fill" fill-rule="evenodd" d="M 0 0.73333C 0 1.13834 0.328339 1.46667 0.733337 1.46667C 1.13834 1.46667 1.46667 1.13834 1.46667 0.73333C 1.46667 0.328323 1.13834 0 0.733337 0C 0.328339 0 0 0.328323 0 0.73333ZM 0.666656 0.73333C 0.666656 0.69651 0.696503 0.666664 0.733337 0.666664C 0.770142 0.666664 0.799988 0.69651 0.799988 0.73333C 0.799988 0.770149 0.770142 0.799995 0.733337 0.799995C 0.696503 0.799995 0.666656 0.770149 0.666656 0.73333Z"/>
</defs>
</svg>
