<svg width="12" height="12" viewBox="0 0 12 12" version="1.1" xmlns="http://www.w3.org/2000/svg" xmlns:xlink="http://www.w3.org/1999/xlink">
<g id="Canvas" fill="none">
<g id="alarm-clock">
<g id="Line_Icons">
<g id="Group">
<g id="Shape">
<path fill-rule="evenodd" clip-rule="evenodd" d="M 0 5.25C 0 8.14508 2.35547 10.5 5.25 10.5C 8.14453 10.5 10.5 8.14508 10.5 5.25C 10.5 2.35492 8.14453 0 5.25 0C 2.35547 0 0 2.35492 0 5.25ZM 1.16797 5.25C 1.16797 2.99834 3 1.16667 5.25 1.16667C 7.50391 1.16667 9.33594 2.99834 9.33594 5.25C 9.33594 7.50168 7.50391 9.33334 5.25 9.33334C 3 9.33334 1.16797 7.50168 1.16797 5.25Z" transform="translate(0.75 1.33333)" fill="black"/>
</g>
<g id="Shape_2">
<path d="M 2.47333 2.97383C 2.7825 2.65825 2.97442 2.22658 2.97442 1.75C 2.97442 0.783417 2.191 0 1.22442 0C 0.747833 0 0.315583 0.191917 0 0.501667L 2.47333 2.97383Z" transform="translate(8.85938 0.75)" fill="black"/>
</g>
<g id="Shape_3">
<path d="M 0.501083 2.97383C 0.191917 2.65825 0 2.22658 0 1.75C 0 0.783417 0.783417 0 1.75 0C 2.22658 0 2.65883 0.191917 2.97442 0.501667L 0.501083 2.97383Z" transform="translate(0.167969 0.75)" fill="black"/>
</g>
<g id="Shape_4">
<path d="M 1.92092 5.07908L 0.170917 3.32908C 0.06125 3.21942 0 3.07125 0 2.91667L 0 0L 1.16667 0L 1.16667 2.67517L 2.74575 4.25425L 1.92092 5.07908Z" transform="translate(5.41797 3.66667)" fill="#DE4E2A"/>
</g>
</g>
</g>
</g>
</g>
</svg>

