<svg width="8" height="13" viewBox="0 0 8 13" version="1.1" xmlns="http://www.w3.org/2000/svg" xmlns:xlink="http://www.w3.org/1999/xlink">
<g id="Canvas" fill="none">
<g id="icon-attachment">
<g id="Shape">
<path d="M 0 3.4375C 0 1.5375 1.5375 0 3.4375 0L 10 0C 11.3813 0 12.5 1.11875 12.5 2.5C 12.5 3.88125 11.3813 5 10 5L 4.6875 5C 3.825 5 3.125 4.3 3.125 3.4375C 3.125 2.575 3.825 1.875 4.6875 1.875L 9.375 1.875L 9.375 3.125L 4.63125 3.125C 4.2875 3.125 4.2875 3.75 4.63125 3.75L 10 3.75C 10.6875 3.75 11.25 3.1875 11.25 2.5C 11.25 1.8125 10.6875 1.25 10 1.25L 3.4375 1.25C 2.23125 1.25 1.25 2.23125 1.25 3.4375C 1.25 4.64375 2.23125 5.625 3.4375 5.625L 9.375 5.625L 9.375 6.875L 3.4375 6.875C 1.5375 6.875 0 5.3375 0 3.4375Z" transform="matrix(0 1 -1 0 7.625 0.25)" fill="#777C85"/>
</g>
</g>
</g>
</svg>

