<svg width="18" height="16" viewBox="0 0 18 16" version="1.1" xmlns="http://www.w3.org/2000/svg" xmlns:xlink="http://www.w3.org/1999/xlink">
<g id="Canvas" fill="none">
<g id="icon-bank-2">
<g id="Line_Icons">
<g id="Group">
<g id="Rectangle-path">
<path d="M 0 0L 16.5 0L 16.5 1.5L 0 1.5L 0 0Z" transform="translate(0.75 14)" fill="black"/>
</g>
<g id="Shape">
<path fill-rule="evenodd" clip-rule="evenodd" d="M 16.4727 5.44931C 16.3828 5.77406 16.0879 5.99907 15.75 5.99907L 0.75 5.99907C 0.414062 5.99907 0.117188 5.77406 0.0273438 5.44931C -0.0625 5.12456 0.0761719 4.77956 0.365234 4.60631L 7.86523 0.106308C 8.10156 -0.0354309 8.39844 -0.0354309 8.63672 0.106308L 16.1367 4.60631C 16.3281 4.72046 16.4512 4.90918 16.4883 5.11754C 16.5078 5.2254 16.5039 5.33853 16.4727 5.44931ZM 13.043 4.49907L 8.25 1.62431L 3.45703 4.49907L 13.043 4.49907Z" transform="translate(0.75 0.500931)" fill="black"/>
</g>
<g id="Shape_2">
<path fill-rule="evenodd" clip-rule="evenodd" d="M 15 1.5L 15 0L 0 0L 0 1.5L 0.75 1.5L 0.75 4.5L 0 4.5L 0 6L 15 6L 15 4.5L 14.25 4.5L 14.25 1.5L 15 1.5ZM 8.25 1.5L 9.75 1.5L 9.75 4.5L 8.25 4.5L 8.25 1.5ZM 5.25 4.5L 6.75 4.5L 6.75 1.5L 5.25 1.5L 5.25 4.5ZM 2.25 1.5L 3.75 1.5L 3.75 4.5L 2.25 4.5L 2.25 1.5ZM 11.25 4.5L 12.75 4.5L 12.75 1.5L 11.25 1.5L 11.25 4.5Z" transform="translate(1.5 7.25)" fill="#DE4E2A"/>
</g>
</g>
</g>
</g>
</g>
</svg>

