<svg width="14" height="15" viewBox="0 0 14 15" version="1.1" xmlns="http://www.w3.org/2000/svg" xmlns:xlink="http://www.w3.org/1999/xlink">
<g id="Canvas" fill="none">
<g id="icon-building">
<g id="Line_Icons">
<g id="Group">
<g id="Shape">
<path fill-rule="evenodd" clip-rule="evenodd" d="M 0.720703 0L 12.2402 0C 12.6367 0 12.9609 0.322559 12.9609 0.720001L 12.9609 13.68C 12.9609 14.0782 12.6367 14.4 12.2402 14.4L 8.64062 14.4C 8.24219 14.4 7.91992 14.0782 7.91992 13.68L 7.91992 12.24C 7.91992 11.4466 7.27344 10.8 6.48047 10.8C 5.68555 10.8 5.03906 11.4466 5.03906 12.24L 5.03906 13.6807C 5.03906 14.0789 4.7168 14.4 4.31836 14.4L 0.720703 14.4C 0.322266 14.4 0 14.0782 0 13.68L 0 0.720001C 0 0.32328 0.322266 0 0.720703 0ZM 9.35938 12.96L 11.5195 12.96L 11.5195 1.44L 1.43945 1.44L 1.43945 12.96L 3.59961 12.96L 3.59961 12.24C 3.59961 10.6524 4.89062 9.36 6.47852 9.36C 8.06836 9.36 9.35938 10.6524 9.35938 12.24L 9.35938 12.96Z" transform="translate(0.160156 0.439281)" fill="black"/>
</g>
<g id="Shape_2">
<path d="M 0.72 2.16L 2.16 2.16C 2.55744 2.16 2.88 1.83816 2.88 1.44L 2.88 0.72C 2.88 0.32328 2.55744 0 2.16 0L 0.72 0C 0.32256 0 0 0.32328 0 0.72L 0 1.44C 0 1.83744 0.32184 2.16 0.72 2.16Z" transform="translate(3.04102 3.31928)" fill="#DE4E2A"/>
</g>
<g id="Shape_3">
<path d="M 0.72 2.16L 2.16 2.16C 2.55744 2.16 2.88 1.83816 2.88 1.44L 2.88 0.72C 2.88 0.32328 2.55744 0 2.16 0L 0.72 0C 0.32256 0 0 0.32328 0 0.72L 0 1.44C 0 1.83744 0.32184 2.16 0.72 2.16Z" transform="translate(7.35938 3.31928)" fill="#DE4E2A"/>
</g>
<g id="Shape_4">
<path d="M 0.72 2.16L 2.16 2.16C 2.55744 2.16 2.88 1.83816 2.88 1.44L 2.88 0.72C 2.88 0.32328 2.55744 0 2.16 0L 0.72 0C 0.32256 0 0 0.32328 0 0.72L 0 1.44C 0 1.83744 0.32184 2.16 0.72 2.16Z" transform="translate(3.04102 6.91928)" fill="#DE4E2A"/>
</g>
<g id="Shape_5">
<path d="M 0.72 2.16L 2.16 2.16C 2.55744 2.16 2.88 1.83816 2.88 1.44L 2.88 0.72C 2.88 0.32328 2.55744 0 2.16 0L 0.72 0C 0.32256 0 0 0.32328 0 0.72L 0 1.44C 0 1.83744 0.32184 2.16 0.72 2.16Z" transform="translate(7.35938 6.91928)" fill="#DE4E2A"/>
</g>
</g>
</g>
</g>
</g>
</svg>

