<svg width="18" height="17" viewBox="0 0 18 17" version="1.1" xmlns="http://www.w3.org/2000/svg" xmlns:xlink="http://www.w3.org/1999/xlink">
<title>calendar-1</title>
<desc>Created using Figma</desc>
<g id="Canvas" transform="translate(-3598 -140)">
<g id="calendar-1">
<g id="Line_Icons">
<g id="Group">
<g id="Shape">
<use xlink:href="#path0_fill" transform="translate(3598.75 140.75)" fill="#C6CBD4"/>
</g>
<g id="Shape">
<use xlink:href="#path1_fill" transform="translate(3602.5 140.75)" fill="#C6CBD4"/>
</g>
<g id="Rectangle-path">
<use xlink:href="#path2_fill" transform="translate(3601.75 146.75)" fill="#C6CBD4"/>
</g>
<g id="Rectangle-path">
<use xlink:href="#path2_fill" transform="translate(3605.5 146.75)" fill="#C6CBD4"/>
</g>
<g id="Rectangle-path">
<use xlink:href="#path2_fill" transform="translate(3609.25 146.75)" fill="#C6CBD4"/>
</g>
<g id="Rectangle-path">
<use xlink:href="#path2_fill" transform="translate(3601.75 150.5)" fill="#C6CBD4"/>
</g>
<g id="Rectangle-path">
<use xlink:href="#path2_fill" transform="translate(3605.5 150.5)" fill="#C6CBD4"/>
</g>
</g>
</g>
</g>
</g>
<defs>
<path id="path0_fill" d="M 15 1.5L 12.75 1.5L 12.75 0L 11.25 0L 11.25 4.5L 12.75 4.5L 12.75 3L 15 3L 15 14.25L 1.5 14.25L 1.5 3L 3 3L 3 1.5L 1.5 1.5C 0.672 1.5 0 2.17125 0 3L 0 14.25C 0 15.078 0.672 15.75 1.5 15.75L 15 15.75C 15.828 15.75 16.5 15.078 16.5 14.25L 16.5 3C 16.5 2.17125 15.828 1.5 15 1.5Z"/>
<path id="path1_fill" d="M 1.5 3L 6.75 3L 6.75 1.5L 1.5 1.5L 1.5 0L 0 0L 0 4.5L 1.5 4.5L 1.5 3Z"/>
<path id="path2_fill" d="M 0 0L 3 0L 3 3L 0 3L 0 0Z"/>
</defs>
</svg>
