<svg width="18" height="17" viewBox="0 0 18 17" version="1.1" xmlns="http://www.w3.org/2000/svg" xmlns:xlink="http://www.w3.org/1999/xlink">
<g id="Canvas" fill="none">
<g id="icon-calendar">
<g id="Line_Icons">
<g id="Group">
<g id="Shape">
<path d="M 15 1.5L 12.75 1.5L 12.75 0L 11.25 0L 11.25 4.5L 12.75 4.5L 12.75 3L 15 3L 15 14.25L 1.5 14.25L 1.5 3L 3 3L 3 1.5L 1.5 1.5C 0.672 1.5 0 2.17125 0 3L 0 14.25C 0 15.078 0.672 15.75 1.5 15.75L 15 15.75C 15.828 15.75 16.5 15.078 16.5 14.25L 16.5 3C 16.5 2.17125 15.828 1.5 15 1.5Z" transform="translate(0.75 0.75)" fill="black"/>
</g>
<g id="Shape_2">
<path d="M 1.5 3L 6.75 3L 6.75 1.5L 1.5 1.5L 1.5 0L 0 0L 0 4.5L 1.5 4.5L 1.5 3Z" transform="translate(4.5 0.75)" fill="black"/>
</g>
<g id="Rectangle-path">
<path d="M 0 0L 3 0L 3 3L 0 3L 0 0Z" transform="translate(3.75 6.75)" fill="#DF512D"/>
</g>
<g id="Rectangle-path_2">
<path d="M 0 0L 3 0L 3 3L 0 3L 0 0Z" transform="translate(7.5 6.75)" fill="#DF512D"/>
</g>
<g id="Rectangle-path_3">
<path d="M 0 0L 3 0L 3 3L 0 3L 0 0Z" transform="translate(11.25 6.75)" fill="#DF512D"/>
</g>
<g id="Rectangle-path_4">
<path d="M 0 0L 3 0L 3 3L 0 3L 0 0Z" transform="translate(3.75 10.5)" fill="#DF512D"/>
</g>
<g id="Rectangle-path_5">
<path d="M 0 0L 3 0L 3 3L 0 3L 0 0Z" transform="translate(7.5 10.5)" fill="#DF512D"/>
</g>
</g>
</g>
</g>
</g>
</svg>

