<svg width="18" height="18" viewBox="0 0 18 18" version="1.1" xmlns="http://www.w3.org/2000/svg" xmlns:xlink="http://www.w3.org/1999/xlink">
<title>icon-checked</title>
<desc>Created using Figma</desc>
<g id="Canvas" transform="translate(-5635 -222)">
<g id="icon-checked">
<g id="Shape">
<use xlink:href="#path0_fill" transform="translate(5635 222)" fill="#DE4E2A"/>
</g>
</g>
</g>
<defs>
<path id="path0_fill" fill-rule="evenodd" d="M 0 8.75C 0 3.90834 3.9082 0 8.75 0C 13.5918 0 17.5 3.90834 17.5 8.75C 17.5 13.5917 13.5918 17.5 8.75 17.5C 3.9082 17.5 0 13.5917 0 8.75ZM 7.7002 12.3667L 13.9419 6.18332C 14.0586 6.06667 14.0586 5.83333 13.8252 5.77499L 13.4165 5.36665C 13.3003 5.25 13.125 5.25 13.0083 5.36665L 7.2334 11.1417L 4.375 8.28333C 4.2583 8.16666 4.0835 8.16666 3.9668 8.28333L 3.55859 8.69167C 3.5 8.75 3.5 8.98332 3.55859 9.09999L 6.8833 12.3667C 7.1167 12.6 7.4668 12.6 7.7002 12.3667Z"/>
</defs>
</svg>
