<svg width="37" height="36" viewBox="0 0 37 36" version="1.1" xmlns="http://www.w3.org/2000/svg" xmlns:xlink="http://www.w3.org/1999/xlink">
<title>Icon - time-event-calendar-clock-reminde</title>
<desc>Created using Figma</desc>
<g id="Canvas" transform="translate(965 -310)">
<g id="Icon - time-event-calendar-clock-reminde">
<g id="Oval 2">
<use xlink:href="#path0_fill" transform="translate(-965 310)" fill="#DE4E2A"/>
</g>
<g id="_Path_">
<use xlink:href="#path1_fill" transform="translate(-957.771 319.094)" fill="#FFFFFF"/>
</g>
<g id="Combined Shape" opacity="0.5">
<use xlink:href="#path2_fill" transform="translate(-953.077 317.219)" fill="#FFFFFF"/>
</g>
<g id="_Path_6" opacity="0.5">
<use xlink:href="#path3_fill" transform="translate(-957.771 323.781)" fill="#FFFFFF"/>
</g>
<g id="_Path_7">
<use xlink:href="#path4_fill" transform="translate(-945.567 329.406)" fill="#FFFFFF"/>
</g>
<g id="_Path_8" opacity="0.5">
<use xlink:href="#path5_fill" transform="translate(-940.873 331.281)" fill="#FFFFFF"/>
</g>
</g>
</g>
<defs>
<path id="path0_fill" fill-rule="evenodd" d="M 18.0251 36C 27.9801 36 36.0502 27.9411 36.0502 18C 36.0502 8.05887 27.9801 0 18.0251 0C 8.07011 0 0 8.05887 0 18C 0 27.9411 8.07011 36 18.0251 36Z"/>
<path id="path1_fill" d="M 21.2171 12C 21.2171 12.4142 20.8808 12.75 20.466 12.75C 20.0512 12.75 19.715 12.4142 19.715 12L 19.715 2.15625C 19.715 1.82046 19.394 1.5 19.0578 1.5L 2.15926 1.5C 1.823 1.5 1.50209 1.82046 1.50209 2.15625L 1.50209 17.1562C 1.50209 17.492 1.823 17.8125 2.15926 17.8125L 13.8944 17.8125C 14.3091 17.8125 14.6454 18.1483 14.6454 18.5625C 14.6454 18.9767 14.3091 19.3125 13.8944 19.3125L 2.15926 19.3125C 0.99342 19.3125 0 18.3205 0 17.1562L 0 2.15625C 0 0.992036 0.99342 0 2.15926 0L 19.0578 0C 20.2236 0 21.2171 0.992036 21.2171 2.15625L 21.2171 12Z"/>
<path id="path2_fill" fill-rule="evenodd" d="M 0.938782 3.78262L 0.938782 0.75C 0.938782 0.335785 1.27502 0 1.68982 0C 2.10461 0 2.44086 0.335785 2.44086 0.75L 2.44086 4.95642L 2.44086 4.96875C 2.44092 5.64185 1.89447 6.1875 1.22046 6.1875C 0.546387 6.1875 0 5.64185 0 4.96875C 0 4.39246 0.400513 3.90961 0.938782 3.78262ZM 10.6085 6.1875C 9.93445 6.1875 9.38806 5.64185 9.38806 4.96875C 9.38806 4.39246 9.78864 3.90955 10.3269 3.78259L 10.3269 0.75C 10.3269 0.335785 10.6631 0 11.0779 0C 11.4927 0 11.829 0.335785 11.829 0.75L 11.829 4.96875C 11.829 5.64185 11.2825 6.1875 10.6085 6.1875Z"/>
<path id="path3_fill" d="M 0.751046 1.5C 0.336255 1.5 0 1.16421 0 0.75C 0 0.335786 0.336255 0 0.751046 0L 20.466 0C 20.8808 0 21.2171 0.335786 21.2171 0.75C 21.2171 1.16421 20.8808 1.5 20.466 1.5L 0.751046 1.5Z"/>
<path id="path4_fill" fill-rule="evenodd" d="M 0 5.4375C 0 8.44055 2.43787 10.875 5.44507 10.875C 8.45233 10.875 10.8902 8.44055 10.8902 5.4375C 10.8902 2.43445 8.45233 0 5.44507 0C 2.43787 0 0 2.43445 0 5.4375ZM 9.38806 5.4375C 9.38806 7.61212 7.62274 9.375 5.44507 9.375C 3.2674 9.375 1.50208 7.61212 1.50208 5.4375C 1.50208 3.26288 3.2674 1.5 5.44507 1.5C 7.62274 1.5 9.38806 3.26288 9.38806 5.4375Z"/>
<path id="path5_fill" d="M 2.69033 4.43842C 2.98363 4.73131 2.98363 5.20619 2.69033 5.49908C 2.39703 5.79197 1.92149 5.79197 1.62819 5.49908L 0.219976 4.09283C 0.0791278 3.95218 0 3.76141 0 3.5625L 0 0.75C 0 0.335786 0.336255 0 0.751046 0C 1.16584 0 1.50209 0.335786 1.50209 0.75L 1.50209 3.25184L 2.69033 4.43842Z"/>
</defs>
</svg>
