<svg width="26" height="26" viewBox="0 0 26 26" version="1.1" xmlns="http://www.w3.org/2000/svg" xmlns:xlink="http://www.w3.org/1999/xlink">
<g id="Canvas" fill="none">
<g id="btn-edit">
<g id="Oval 4">
<path fill-rule="evenodd" clip-rule="evenodd" d="M 13 26C 20.1797 26 26 20.1797 26 13C 26 5.8203 20.1797 0 13 0C 5.8203 0 0 5.8203 0 13C 0 20.1797 5.8203 26 13 26Z" fill="#E1E1E1"/>
</g>
<g id="Icon - chat-bubble-circle-edit">
<g id="Line_Icons">
<g id="Group">
<g id="Shape">
<path d="M 9.70242 3.61803C 9.81636 3.95257 9.88556 4.30012 9.88556 4.65859C 9.88556 6.66687 8.01827 8.30055 5.72331 8.30055L 1.71351 8.30055L 2.40444 7.55655C 2.5855 7.36145 2.59018 7.06125 2.41537 6.86042C 1.85659 6.21943 1.56107 5.45826 1.56107 4.65859C 1.56107 2.80483 3.15313 1.27365 5.20303 1.04837L 5.20303 0C 2.5777 0.235167 0.520507 2.23512 0.520507 4.65859C 0.520507 5.56128 0.801978 6.42338 1.33891 7.17467L 0.139141 8.46704C -0.00185502 8.61845 -0.0393152 8.83905 0.0434094 9.02895C 0.126134 9.21833 0.313435 9.34112 0.520507 9.34112L 5.72331 9.34112C 8.59214 9.34112 10.9261 7.24074 10.9261 4.65859C 10.9261 4.30636 10.8772 3.95777 10.7908 3.61803L 9.70242 3.61803Z" transform="translate(7.51953 9.14562)" fill="#6C727C"/>
</g>
<g id="Shape_2">
<path fill-rule="evenodd" clip-rule="evenodd" d="M 5.05078 0.152573C 4.84766 -0.0508575 4.51758 -0.0508575 4.31445 0.152573L 0.671875 3.79454C 0.607422 3.86165 0.558594 3.9449 0.535156 4.03647L 0.015625 6.11759C -0.0292969 6.29552 0.0234375 6.48283 0.152344 6.61185C 0.28125 6.74036 0.46875 6.79343 0.646484 6.74869L 2.72852 6.22841C 2.81836 6.20552 2.90234 6.15765 2.96875 6.09157L 6.61133 2.44961C 6.81445 2.24566 6.81445 1.91736 6.61133 1.71393L 5.05078 0.152573ZM 2.33398 5.2534L 1.23438 5.52863L 1.50977 4.42876L 3.12109 2.81693L 3.94531 3.64209L 2.33398 5.2534ZM 3.85742 2.08125L 4.68164 2.90694L 5.50781 2.08125L 4.68164 1.25609L 3.85742 2.08125Z" transform="translate(13.2422 5.99987)" fill="#6C727C"/>
</g>
</g>
</g>
</g>
</g>
</g>
</svg>

