<svg width="26" height="26" viewBox="0 0 26 26" version="1.1" xmlns="http://www.w3.org/2000/svg" xmlns:xlink="http://www.w3.org/1999/xlink">
<g id="Canvas" fill="none">
<g id="btn-delete">
<g id="Oval 4">
<path fill-rule="evenodd" clip-rule="evenodd" d="M 13 26C 20.1797 26 26 20.1797 26 13C 26 5.8203 20.1797 0 13 0C 5.8203 0 0 5.8203 0 13C 0 20.1797 5.8203 26 13 26Z" fill="#E1E1E1"/>
</g>
<g id="icon-trash">
<g id="Combined Shape">
<path fill-rule="evenodd" clip-rule="evenodd" d="M 4.36523 0L 7.63672 0C 8.24023 0 8.72852 0.477564 8.72852 1.06667L 8.72852 1.6L 7.63672 1.6L 7.63672 1.06667L 4.36328 1.06667L 4.36328 1.6L 3.27344 1.6L 3.27344 1.06667C 3.27344 0.477564 3.76172 0 4.36523 0ZM 1.0918 4.8C 0.488281 4.8 0 4.32244 0 3.73333L 0 2.66667C 0 2.07756 0.488281 1.6 1.0918 1.6L 3.27344 1.6C 3.27344 2.1891 3.76172 2.66667 4.36523 2.66667L 1.0918 2.66667L 1.0918 3.73333L 2.18359 3.73333C 1.58008 3.73333 1.0918 4.2109 1.0918 4.8ZM 10.9082 4.8L 10.9102 11.7333C 10.9102 12.3224 10.4219 12.8 9.81836 12.8L 2.18359 12.8C 1.58008 12.8 1.0918 12.3224 1.0918 11.7333L 1.0918 4.8L 2.18164 4.8L 2.18164 11.7333L 9.81836 11.7333L 9.81836 4.8L 10.9082 4.8ZM 10.9082 4.8C 11.5117 4.8 12 4.32244 12 3.73333L 12 2.66667C 12 2.07756 11.5117 1.6 10.9082 1.6L 8.72852 1.6C 8.72852 2.1891 8.24023 2.66667 7.63672 2.66667L 10.9102 2.66667L 10.9102 3.73333L 9.81836 3.73333C 10.4219 3.73333 10.9102 4.2109 10.9082 4.8ZM 3.81836 6.4C 3.51758 6.4 3.27344 6.64421 3.27344 6.94545L 3.27344 9.58788C 3.27344 9.88912 3.51758 10.1333 3.81836 10.1333C 4.12109 10.1333 4.36523 9.88912 4.36523 9.58788L 4.36523 6.94545C 4.36523 6.64421 4.12109 6.4 3.81836 6.4ZM 5.45508 6.94545C 5.45508 6.64421 5.69922 6.4 6 6.4C 6.30273 6.4 6.54688 6.64421 6.54688 6.94545L 6.54688 9.58788C 6.54688 9.88912 6.30273 10.1333 6 10.1333C 5.69922 10.1333 5.45508 9.88912 5.45508 9.58788L 5.45508 6.94545ZM 8.18164 6.4C 7.88086 6.4 7.63672 6.64421 7.63672 6.94545L 7.63672 9.58788C 7.63672 9.88912 7.88086 10.1333 8.18164 10.1333C 8.48438 10.1333 8.72852 9.88912 8.72852 9.58788L 8.72852 6.94545C 8.72852 6.64421 8.48438 6.4 8.18164 6.4Z" transform="translate(7 7)" fill="#6C727C"/>
</g>
</g>
</g>
</g>
</svg>

