<svg width="17" height="16" viewBox="0 0 17 16" version="1.1" xmlns="http://www.w3.org/2000/svg" xmlns:xlink="http://www.w3.org/1999/xlink">
<g id="Canvas" fill="none">
<g id="icon-city">
<g id="building-16">
<g id="Line_Icons">
<g id="Group">
<g id="Shape">
<path fill-rule="evenodd" clip-rule="evenodd" d="M 0.515625 0.70034L 3.23438 0.02034C 3.4375 -0.0306587 3.6543 0.0155792 3.81836 0.1441C 3.98242 0.272621 4.08008 0.470501 4.08008 0.680618L 4.08008 11.5606C 4.08008 11.9367 3.77539 12.2406 3.40039 12.2406L 0.679688 12.2406C 0.304688 12.2406 0 11.9367 0 11.5606L 0 1.36062C 0 1.04782 0.212891 0.776501 0.515625 0.70034ZM 1.35938 10.8806L 2.71875 10.8806L 2.71875 1.55102L 1.35938 1.89102L 1.35938 10.8806Z" transform="translate(0.679688 3.39938)" fill="#DF512D"/>
</g>
<g id="Shape_2">
<path fill-rule="evenodd" clip-rule="evenodd" d="M 10.5488 6.89694L 7.15039 4.85695C 6.93945 4.73046 6.67773 4.72842 6.46484 4.84878C 6.25195 4.96914 6.11914 5.1949 6.11914 5.44038L 6.11914 8.84038L 4.75977 7.82038L 4.75977 1.36038C 4.75977 1.03602 4.53125 0.757225 4.21289 0.693302L 0.8125 0.0133018C 0.697266 -0.00987244 0.578125 -0.00241852 0.46875 0.0329094C 0.388672 0.0587463 0.314453 0.0994911 0.248047 0.154064C 0.0917969 0.283264 0 0.476383 0 0.680382L 0 14.2804C 0 14.6564 0.304688 14.9604 0.679688 14.9604L 10.1992 14.9604C 10.5762 14.9604 10.8809 14.6564 10.8809 14.2804L 10.8809 7.48038C 10.8809 7.24102 10.7539 7.02002 10.5488 6.89694ZM 6.11914 13.6004L 4.75977 13.6004L 4.75977 11.9004C 4.75977 11.3373 4.30273 10.8804 3.74023 10.8804C 3.17578 10.8804 2.71875 11.3373 2.71875 11.9004L 2.71875 13.6004L 1.35938 13.6004L 1.35938 7.48038L 2.71875 7.48038L 2.71875 6.12038L 1.35938 6.12038L 1.35938 4.76038L 2.71875 4.76038L 2.71875 3.40038L 1.35938 3.40038L 1.35938 1.5093L 3.39844 1.91798L 3.39844 8.16039C 3.39844 8.37391 3.5 8.57586 3.67188 8.70506L 6.11914 10.5404L 6.11914 13.6004ZM 7.48047 13.6004L 9.51953 13.6004L 9.51953 7.86526L 7.48047 6.64126L 7.48047 13.6004Z" transform="translate(5.43945 0.679615)" fill="black"/>
</g>
</g>
</g>
</g>
</g>
</g>
</svg>

