<svg width="18" height="18" viewBox="0 0 18 18" version="1.1" xmlns="http://www.w3.org/2000/svg" xmlns:xlink="http://www.w3.org/1999/xlink">
<g id="Canvas" fill="none">
<g id="icon-time-add">
<g id="Line_Icons">
<g id="Group">
<g id="Shape">
<path fill-rule="evenodd" clip-rule="evenodd" d="M 0 9C 0 4.03802 4.03711 0 9 0C 13.9629 0 18 4.03802 18 9C 18 13.962 13.9629 18 9 18C 4.03711 18 0 13.962 0 9ZM 2 9C 2 12.86 5.14062 16 9 16C 12.8594 16 16 12.86 16 9C 16 5.14001 12.8594 2 9 2C 5.14062 2 2 5.14001 2 9Z" fill="black"/>
</g>
<g id="Shape_2">
<path d="M 2 0L 0 0L 0 5.535L 3.445 7.832L 4.555 6.168L 2 4.465L 2 0Z" transform="translate(8 4)" fill="#DF512D"/>
</g>
</g>
</g>
</g>
</g>
</svg>

