<svg width="19" height="19" viewBox="0 0 19 19" version="1.1" xmlns="http://www.w3.org/2000/svg" xmlns:xlink="http://www.w3.org/1999/xlink">
<title>Icon - close</title>
<desc>Created using Figma</desc>
<g id="Canvas" transform="translate(-3912 62)">
<g id="Icon - close">
<g id="Combined Shape">
<use xlink:href="#path0_fill" transform="translate(3912.34 -61.664)" fill="#8A8FAB"/>
</g>
</g>
</g>
<defs>
<path id="path0_fill" fill-rule="evenodd" d="M 0 8.856C 0 13.747 3.96509 17.712 8.85596 17.712C 13.7471 17.712 17.7119 13.747 17.7119 8.856C 17.7119 3.96497 13.7471 0 8.85596 0C 3.96509 0 0 3.96497 0 8.856ZM 16.5601 8.856C 16.5601 13.1108 13.1108 16.56 8.8562 16.56C 4.60132 16.56 1.1521 13.1108 1.1521 8.856C 1.1521 4.6012 4.60132 1.152 8.8562 1.152C 13.1108 1.152 16.5601 4.6012 16.5601 8.856ZM 5.20874 6.0233C 4.98389 5.79835 4.98389 5.43365 5.20874 5.20871C 5.43359 4.98376 5.79834 4.98376 6.02344 5.20871L 8.85596 8.04136L 8.0415 8.856L 5.20874 6.0233ZM 8.85596 9.67065L 6.02344 12.5033C 5.79834 12.7282 5.43359 12.7282 5.20874 12.5033C 4.98389 12.2784 4.98389 11.9137 5.20874 11.6887L 8.0415 8.856L 8.85596 9.67065ZM 8.85596 9.67065L 9.67065 8.856L 12.5034 11.6887C 12.7283 11.9137 12.7283 12.2784 12.5034 12.5033C 12.2783 12.7282 11.9136 12.7282 11.6887 12.5033L 8.85596 9.67065ZM 9.67065 8.856L 8.85596 8.04136L 11.6887 5.20871C 11.9136 4.98376 12.2783 4.98376 12.5034 5.20871C 12.7283 5.43365 12.7283 5.79835 12.5034 6.0233L 9.67065 8.856Z"/>
</defs>
</svg>
