<svg width="18" height="15" viewBox="0 0 18 15" version="1.1" xmlns="http://www.w3.org/2000/svg" xmlns:xlink="http://www.w3.org/1999/xlink">
<title>icon-co2</title>
<desc>Created using Figma</desc>
<g id="Canvas" transform="translate(-38 50)">
<g id="icon-co2">
<g id="Shape">
<use xlink:href="#path0_fill" transform="translate(46.3311 -47.9672)" fill="#DE4E2A"/>
</g>
<g id="Shape">
<use xlink:href="#path1_fill" transform="translate(43.4048 -46.7486)"/>
</g>
<g id="Shape">
<use xlink:href="#path2_fill" transform="translate(41.0088 -44.3526)"/>
</g>
<g id="Shape">
<use xlink:href="#path2_fill" transform="translate(51.7427 -38.1559)"/>
</g>
<g id="Shape">
<use xlink:href="#path3_fill" transform="translate(40.1344 -41.0821)"/>
</g>
<g id="Shape">
<use xlink:href="#path3_fill" transform="translate(52.5277 -41.0821)"/>
</g>
<g id="Shape">
<use xlink:href="#path4_fill" transform="translate(41.0088 -38.1559)"/>
</g>
<g id="Shape">
<use xlink:href="#path4_fill" transform="translate(51.7427 -44.3526)"/>
</g>
<g id="Shape">
<use xlink:href="#path5_fill" transform="translate(49.6014 -46.7486)"/>
</g>
<g id="Shape">
<use xlink:href="#path6_fill" transform="translate(38.7569 -48.9994)"/>
<use xlink:href="#path7_stroke" transform="translate(38.7569 -48.9994)"/>
</g>
<g id="Shape">
<use xlink:href="#path8_fill" transform="translate(45.6459 -44.8689)" fill="#DE4E2A"/>
</g>
</g>
</g>
<defs>
<path id="path0_fill" d="M 0 0.688517C 0 0.308259 0.308259 0 0.688517 0C 1.06877 0 1.37703 0.308259 1.37703 0.688517L 1.37703 1.37703C 1.37703 1.75729 1.06877 2.06555 0.688517 2.06555C 0.308259 2.06555 0 1.75729 0 1.37703L 0 0.688517Z"/>
<path id="path1_fill" d="M 0.0458397 0.515855C -0.0488984 0.351011 0.0079339 0.140578 0.172778 0.0458397C 0.337622 -0.0488984 0.548055 0.0079339 0.642793 0.172778L 0.987052 0.771788C 1.08179 0.936632 1.02496 1.14706 0.860113 1.2418C 0.695269 1.33654 0.484836 1.27971 0.390098 1.11486L 0.0458397 0.515855Z"/>
<path id="path2_fill" d="M 0.172778 0.642793C 0.0079339 0.548055 -0.0488984 0.337622 0.0458397 0.172778C 0.140578 0.0079339 0.351011 -0.0488984 0.515855 0.0458397L 1.11486 0.390098C 1.27971 0.484836 1.33654 0.695269 1.2418 0.860113C 1.14706 1.02496 0.936632 1.08179 0.771788 0.987052L 0.172778 0.642793Z"/>
<path id="path3_fill" d="M 0.344258 0.688517C 0.15413 0.688517 0 0.534387 0 0.344258C 0 0.15413 0.15413 0 0.344258 0L 1.03278 0C 1.2229 0 1.37703 0.15413 1.37703 0.344258C 1.37703 0.534387 1.2229 0.688517 1.03278 0.688517L 0.344258 0.688517Z"/>
<path id="path4_fill" d="M 0.515855 0.987052C 0.351011 1.08179 0.140578 1.02496 0.0458397 0.860113C -0.0488984 0.695269 0.0079339 0.484836 0.172778 0.390098L 0.771788 0.0458397C 0.936632 -0.0488984 1.14706 0.0079339 1.2418 0.172778C 1.33654 0.337622 1.27971 0.548055 1.11486 0.642793L 0.515855 0.987052Z"/>
<path id="path5_fill" d="M 0.642793 1.11486C 0.548055 1.27971 0.337622 1.33654 0.172778 1.2418C 0.0079339 1.14706 -0.0488984 0.936632 0.0458397 0.771788L 0.390098 0.172778C 0.484836 0.0079339 0.695269 -0.0488984 0.860113 0.0458397C 1.02496 0.140578 1.08179 0.351011 0.987052 0.515855L 0.642793 1.11486Z"/>
<path id="path6_fill" d="M 15.519 12.213C 15.4281 12.38 15.2191 12.4417 15.0521 12.3508C 14.8851 12.2599 14.8234 12.0508 14.9143 11.8838C 16.6491 8.6976 15.8808 4.72872 13.0824 2.42003C 10.284 0.111346 6.24139 0.111346 3.44295 2.42003C 0.644503 4.72872 -0.123773 8.6976 1.611 11.8838C 1.70192 12.0508 1.64025 12.2599 1.47327 12.3508C 1.30629 12.4417 1.09722 12.38 1.0063 12.213C -0.886177 8.73718 -0.0480583 4.40749 3.00479 1.88892C 6.05764 -0.629641 10.4677 -0.629641 13.5206 1.88892C 16.5734 4.40749 17.4115 8.73718 15.519 12.213Z"/>
<path id="path7_stroke" d="M 15.519 12.213L 15.3873 12.1413L 15.3873 12.1413L 15.519 12.213ZM 14.9143 11.8838L 15.0461 11.9555L 15.0461 11.9555L 14.9143 11.8838ZM 1.611 11.8838L 1.47926 11.9555L 1.611 11.8838ZM 1.0063 12.213L 1.13804 12.1413L 1.13804 12.1413L 1.0063 12.213ZM 15.3873 12.1413C 15.336 12.2355 15.218 12.2703 15.1238 12.219L 14.9803 12.4825C 15.2201 12.613 15.5202 12.5245 15.6508 12.2848L 15.3873 12.1413ZM 15.1238 12.219C 15.0296 12.1677 14.9948 12.0498 15.0461 11.9555L 14.7826 11.8121C 14.6521 12.0518 14.7406 12.352 14.9803 12.4825L 15.1238 12.219ZM 15.0461 11.9555C 16.8152 8.70622 16.0317 4.65873 13.1779 2.30432L 12.9869 2.53574C 15.73 4.7987 16.483 8.68897 14.7826 11.8121L 15.0461 11.9555ZM 13.1779 2.30432C 10.324 -0.0500856 6.20136 -0.0500856 3.34749 2.30432L 3.5384 2.53574C 6.28142 0.272777 10.2439 0.272777 12.9869 2.53574L 13.1779 2.30432ZM 3.34749 2.30432C 0.493622 4.65873 -0.28987 8.70622 1.47926 11.9555L 1.74274 11.8121C 0.0423242 8.68897 0.795384 4.7987 3.5384 2.53574L 3.34749 2.30432ZM 1.47926 11.9555C 1.53056 12.0498 1.49577 12.1677 1.40154 12.219L 1.545 12.4825C 1.78474 12.352 1.87327 12.0518 1.74274 11.8121L 1.47926 11.9555ZM 1.40154 12.219C 1.30732 12.2703 1.18934 12.2355 1.13804 12.1413L 0.874564 12.2848C 1.00509 12.5245 1.30526 12.613 1.545 12.4825L 1.40154 12.219ZM 1.13804 12.1413C -0.72008 8.72856 0.102823 4.47747 3.10025 2.00463L 2.90933 1.77322C -0.198939 4.33751 -1.05227 8.7458 0.874564 12.2848L 1.13804 12.1413ZM 3.10025 2.00463C 6.09767 -0.46821 10.4277 -0.46821 13.4251 2.00463L 13.616 1.77322C 10.5077 -0.791072 6.01761 -0.791072 2.90933 1.77322L 3.10025 2.00463ZM 13.4251 2.00463C 16.4225 4.47747 17.2454 8.72856 15.3873 12.1413L 15.6508 12.2848C 17.5776 8.7458 16.7243 4.33751 13.616 1.77322L 13.4251 2.00463Z"/>
<path id="path8_fill" fill-rule="evenodd" d="M 1.37712 9.64353C 1.96878 9.64353 2.49431 9.26558 2.68258 8.70467C 2.85464 8.19205 2.70986 7.63135 2.32348 7.26612L 1.71663 0.31432C 1.68005 -0.104774 1.06731 -0.104774 1.03072 0.31432L 0.423248 7.27328C 0.042511 7.63864 -0.0992813 8.19539 0.0716629 8.70467C 0.259933 9.26558 0.785461 9.64353 1.37712 9.64353ZM 1.37368 4.30293L 1.65039 7.4728C 1.66057 7.58945 1.72813 7.6883 1.82379 7.74252C 2.03673 7.92392 2.11971 8.21786 2.02985 8.48558C 1.93571 8.76604 1.67295 8.95501 1.37712 8.95501C 1.08129 8.95501 0.818527 8.76604 0.724392 8.48558C 0.630257 8.20513 0.725796 7.89589 0.961716 7.71741C 1.03936 7.65866 1.0885 7.56979 1.09697 7.4728L 1.37368 4.30293Z"/>
</defs>
</svg>
