<svg width="18" height="18" viewBox="0 0 18 18" version="1.1" xmlns="http://www.w3.org/2000/svg" xmlns:xlink="http://www.w3.org/1999/xlink">
<g id="Canvas" fill="none">
<g id="eyedrop-color-pick-eye-drop">
<g id="Shape">
<path fill-rule="evenodd" clip-rule="evenodd" d="M 9.06641 0.122681C 9.23047 -0.0408936 9.47461 -0.0408936 9.63867 0.122681L 14.5488 5.03186C 14.6406 5.12402 14.6797 5.24219 14.668 5.35706C 14.6602 5.44604 14.6191 5.53308 14.5488 5.60449L 12.9121 7.24097C 12.748 7.40454 12.502 7.40454 12.3398 7.24097L 11.7656 6.66821C 10.1641 8.19067 7.15039 11.204 6.02539 12.327L 5.95703 12.3955C 5.54883 12.8046 5.05664 13.05 4.48438 13.05C 3.99414 13.05 3.50195 13.2136 3.09375 13.4591L 1.62109 14.4409C 1.29297 14.6864 0.802734 14.6045 0.556641 14.3591L 0.230469 14.0319C 0.0507812 13.7935 -0.0410156 13.5116 0.0175781 13.2495C 0.0390625 13.1519 0.0820312 13.057 0.148438 12.9681L 1.04883 11.5773C 1.375 11.0863 1.53906 10.5955 1.53906 10.0227C 1.53906 9.53186 1.78516 8.95911 2.11133 8.71362L 7.92188 2.90454L 7.42969 2.33179C 7.26562 2.16821 7.26562 1.92273 7.42969 1.75903L 9.06641 0.122681ZM 4.48438 11.4136C 4.56641 11.4136 4.64844 11.3318 4.72852 11.3318C 5.20898 10.8181 6.04688 9.97473 6.98047 9.05969C 8.27539 7.78845 9.75195 6.37903 10.7031 5.52271L 9.14844 3.96814L 3.33789 9.77722C 3.29297 9.82275 3.24805 9.86841 3.2168 9.91394C 3.19141 9.9502 3.17578 9.98645 3.17578 10.0227C 3.17578 10.5955 3.01172 11.25 2.84766 11.7408C 3.17969 11.5747 3.54883 11.4836 3.93164 11.442C 4.11328 11.4221 4.29883 11.4136 4.48438 11.4136Z" transform="translate(0.0976562 3.3136)" fill="#6E747E"/>
</g>
<g id="Shape_2">
<path d="M 4.21364 0C 3.39545 0 2.65909 0.327273 2.08636 0.9L 0.122727 2.86364C -0.0409091 3.02727 -0.0409091 3.27273 0.122727 3.43636L 3.80455 7.11818C 3.96818 7.28182 4.21364 7.28182 4.37727 7.11818L 6.34091 5.15455C 7.48636 4.00909 7.48636 2.04545 6.34091 0.9C 5.85 0.327273 5.03182 0 4.21364 0Z" transform="translate(10.7598 0)" fill="#6E747E"/>
</g>
</g>
</g>
</svg>

