<svg width="160" height="20" viewBox="0 0 160 20" version="1.1" xmlns="http://www.w3.org/2000/svg" xmlns:xlink="http://www.w3.org/1999/xlink">
<title>Logo</title>
<desc>Created using Figma</desc>
<g id="Canvas" transform="translate(3084 334)">
<g id="Logo">
<g id="VAE_Icon_White">
<g id="Fill 1">
<use xlink:href="#path0_fill" transform="translate(-3084 -334)" fill="#DE4E2A"/>
</g>
<g id="Fill 2">
<use xlink:href="#path1_fill" transform="translate(-3082 -334)" fill="#DE4E2A"/>
</g>
<g id="Fill 3">
<use xlink:href="#path0_fill" transform="translate(-3081 -334)" fill="#DE4E2A"/>
</g>
<g id="Fill 4">
<use xlink:href="#path2_fill" transform="translate(-3063 -334)" fill="#DE4E2A"/>
</g>
<g id="Fill 5">
<use xlink:href="#path3_fill" transform="translate(-3065 -334)" fill="#DE4E2A"/>
</g>
<g id="Fill 6">
<use xlink:href="#path0_fill" transform="translate(-3064 -334)" fill="#DE4E2A"/>
</g>
<g id="Fill 7">
<use xlink:href="#path4_fill" transform="translate(-3080 -334)" fill="#DE4E2A"/>
</g>
<g id="Fill 8">
<use xlink:href="#path5_fill" transform="translate(-3065 -323)" fill="#DE4E2A"/>
</g>
<g id="Fill 9">
<use xlink:href="#path6_fill" transform="translate(-3064 -323)" fill="#DE4E2A"/>
</g>
</g>
<g id="Tenant Portal">
<use xlink:href="#path7_fill" transform="translate(-3033 -335)" fill="#DE4E2A"/>
</g>
</g>
</g>
<defs>
<path id="path0_fill" fill-rule="evenodd" d="M 0 0L 8.23135 20L 9 20L 0.768646 0L 0 0Z"/>
<path id="path1_fill" fill-rule="evenodd" d="M 0 0L 8.23132 20L 9 20L 0.768676 0L 0 0Z"/>
<path id="path2_fill" fill-rule="evenodd" d="M 19 4.36748L 19 0L 4.75296 0L 4.75296 9.91794L 0.753192 0L 0 0L 8.06586 20L 19 20L 19 15.6325L 9.27956 15.6325L 9.27956 12.117L 16.486 12.117L 16.486 7.74954L 9.27956 7.74954L 9.27956 4.36748L 19 4.36748Z"/>
<path id="path3_fill" fill-rule="evenodd" d="M 0 0L 8.23135 20L 9 20L 0.768992 0L 0 0Z"/>
<path id="path4_fill" fill-rule="evenodd" d="M 13.0189 0L 12.55 0L 6.65847 14.3458L 6.65847 14.3461L 0.767318 0L 0 0L 8.21343 20L 9.44934 20L 11.4598 15.104L 10.9971 15.104L 9.20368 10.7365L 9.99821 10.7365L 11.7916 15.104L 12.5586 15.104L 10.8427 10.7365L 11.5232 10.7365L 13.3169 15.104L 14.0839 15.104L 12.2902 10.7365L 13.0826 10.7365L 14.7985 15.104L 15.5655 15.104L 13.7721 10.7365L 13.2535 10.7365L 15.3408 5.65424L 15.3415 5.65424L 21.233 20L 22 20L 13.7866 0L 13.0189 0Z"/>
<path id="path5_fill" fill-rule="evenodd" d="M 0 0L 2.10133 4L 3 4L 0.898668 0L 0 0Z"/>
<path id="path6_fill" fill-rule="evenodd" d="M 0 0L 2.10145 4L 3 4L 0.898547 0L 0 0Z"/>
<path id="path7_fill" d="M 0.144 5.148L 10.548 5.148L 10.548 7.092L 6.462 7.092L 6.462 18L 4.212 18L 4.212 7.092L 0.144 7.092L 0.144 5.148ZM 16.136 12.528C 16.112 12.204 16.04 11.892 15.92 11.592C 15.812 11.292 15.656 11.034 15.452 10.818C 15.26 10.59 15.02 10.41 14.732 10.278C 14.456 10.134 14.144 10.062 13.796 10.062C 13.436 10.062 13.106 10.128 12.806 10.26C 12.518 10.38 12.266 10.554 12.05 10.782C 11.846 10.998 11.678 11.256 11.546 11.556C 11.426 11.856 11.36 12.18 11.348 12.528L 16.136 12.528ZM 11.348 13.878C 11.348 14.238 11.396 14.586 11.492 14.922C 11.6 15.258 11.756 15.552 11.96 15.804C 12.164 16.056 12.422 16.26 12.734 16.416C 13.046 16.56 13.418 16.632 13.85 16.632C 14.45 16.632 14.93 16.506 15.29 16.254C 15.662 15.99 15.938 15.6 16.118 15.084L 18.062 15.084C 17.954 15.588 17.768 16.038 17.504 16.434C 17.24 16.83 16.922 17.166 16.55 17.442C 16.178 17.706 15.758 17.904 15.29 18.036C 14.834 18.18 14.354 18.252 13.85 18.252C 13.118 18.252 12.47 18.132 11.906 17.892C 11.342 17.652 10.862 17.316 10.466 16.884C 10.082 16.452 9.78802 15.936 9.58402 15.336C 9.39202 14.736 9.29602 14.076 9.29602 13.356C 9.29602 12.696 9.39802 12.072 9.60202 11.484C 9.81802 10.884 10.118 10.362 10.502 9.918C 10.898 9.462 11.372 9.102 11.924 8.838C 12.476 8.574 13.1 8.442 13.796 8.442C 14.528 8.442 15.182 8.598 15.758 8.91C 16.346 9.21 16.832 9.612 17.216 10.116C 17.6 10.62 17.876 11.202 18.044 11.862C 18.224 12.51 18.272 13.182 18.188 13.878L 11.348 13.878ZM 19.748 8.694L 21.692 8.694L 21.692 10.062L 21.728 10.098C 22.04 9.582 22.448 9.18 22.952 8.892C 23.456 8.592 24.014 8.442 24.626 8.442C 25.646 8.442 26.45 8.706 27.038 9.234C 27.626 9.762 27.92 10.554 27.92 11.61L 27.92 18L 25.868 18L 25.868 12.15C 25.844 11.418 25.688 10.89 25.4 10.566C 25.112 10.23 24.662 10.062 24.05 10.062C 23.702 10.062 23.39 10.128 23.114 10.26C 22.838 10.38 22.604 10.554 22.412 10.782C 22.22 10.998 22.07 11.256 21.962 11.556C 21.854 11.856 21.8 12.174 21.8 12.51L 21.8 18L 19.748 18L 19.748 8.694ZM 37.8779 15.93C 37.8779 16.182 37.9079 16.362 37.9679 16.47C 38.0399 16.578 38.1719 16.632 38.3639 16.632C 38.4239 16.632 38.4959 16.632 38.5799 16.632C 38.6639 16.632 38.7599 16.62 38.8679 16.596L 38.8679 18.018C 38.7959 18.042 38.6999 18.066 38.5799 18.09C 38.4719 18.126 38.3579 18.156 38.2379 18.18C 38.1179 18.204 37.9979 18.222 37.8779 18.234C 37.7579 18.246 37.6559 18.252 37.5719 18.252C 37.1519 18.252 36.8039 18.168 36.5279 18C 36.2519 17.832 36.0719 17.538 35.9879 17.118C 35.5799 17.514 35.0759 17.802 34.4759 17.982C 33.8879 18.162 33.3179 18.252 32.7659 18.252C 32.3459 18.252 31.9439 18.192 31.5599 18.072C 31.1759 17.964 30.8339 17.802 30.5339 17.586C 30.2459 17.358 30.0119 17.076 29.8319 16.74C 29.6639 16.392 29.5799 15.99 29.5799 15.534C 29.5799 14.958 29.6819 14.49 29.8859 14.13C 30.1019 13.77 30.3779 13.488 30.7139 13.284C 31.0619 13.08 31.4459 12.936 31.8659 12.852C 32.2979 12.756 32.7299 12.684 33.1619 12.636C 33.5339 12.564 33.8879 12.516 34.2239 12.492C 34.5599 12.456 34.8539 12.402 35.1059 12.33C 35.3699 12.258 35.5739 12.15 35.7179 12.006C 35.8739 11.85 35.9519 11.622 35.9519 11.322C 35.9519 11.058 35.8859 10.842 35.7539 10.674C 35.6339 10.506 35.4779 10.38 35.2859 10.296C 35.1059 10.2 34.9019 10.14 34.6739 10.116C 34.4459 10.08 34.2299 10.062 34.0259 10.062C 33.4499 10.062 32.9759 10.182 32.6039 10.422C 32.2319 10.662 32.0219 11.034 31.9739 11.538L 29.9219 11.538C 29.9579 10.938 30.1019 10.44 30.3539 10.044C 30.6059 9.648 30.9239 9.33 31.3079 9.09C 31.7039 8.85 32.1479 8.682 32.6399 8.586C 33.1319 8.49 33.6359 8.442 34.1519 8.442C 34.6079 8.442 35.0579 8.49 35.5019 8.586C 35.9459 8.682 36.3419 8.838 36.6899 9.054C 37.0499 9.27 37.3379 9.552 37.5539 9.9C 37.7699 10.236 37.8779 10.65 37.8779 11.142L 37.8779 15.93ZM 35.8259 13.338C 35.5139 13.542 35.1299 13.668 34.6739 13.716C 34.2179 13.752 33.7619 13.812 33.3059 13.896C 33.0899 13.932 32.8799 13.986 32.6759 14.058C 32.4719 14.118 32.2919 14.208 32.1359 14.328C 31.9799 14.436 31.8539 14.586 31.7579 14.778C 31.6739 14.958 31.6319 15.18 31.6319 15.444C 31.6319 15.672 31.6979 15.864 31.8299 16.02C 31.9619 16.176 32.1179 16.302 32.2979 16.398C 32.4899 16.482 32.6939 16.542 32.9099 16.578C 33.1379 16.614 33.3419 16.632 33.5219 16.632C 33.7499 16.632 33.9959 16.602 34.2599 16.542C 34.5239 16.482 34.7699 16.38 34.9979 16.236C 35.2379 16.092 35.4359 15.912 35.5919 15.696C 35.7479 15.468 35.8259 15.192 35.8259 14.868L 35.8259 13.338ZM 40.0859 8.694L 42.0299 8.694L 42.0299 10.062L 42.0659 10.098C 42.3779 9.582 42.7859 9.18 43.2899 8.892C 43.7939 8.592 44.3519 8.442 44.9639 8.442C 45.9839 8.442 46.7879 8.706 47.3759 9.234C 47.9639 9.762 48.2579 10.554 48.2579 11.61L 48.2579 18L 46.2059 18L 46.2059 12.15C 46.1819 11.418 46.0259 10.89 45.7379 10.566C 45.4499 10.23 44.9999 10.062 44.3879 10.062C 44.0399 10.062 43.7279 10.128 43.4519 10.26C 43.1759 10.38 42.9419 10.554 42.7499 10.782C 42.5579 10.998 42.4079 11.256 42.2999 11.556C 42.1919 11.856 42.1379 12.174 42.1379 12.51L 42.1379 18L 40.0859 18L 40.0859 8.694ZM 49.4858 8.694L 51.0338 8.694L 51.0338 5.904L 53.0858 5.904L 53.0858 8.694L 54.9398 8.694L 54.9398 10.224L 53.0858 10.224L 53.0858 15.192C 53.0858 15.408 53.0918 15.594 53.1038 15.75C 53.1278 15.906 53.1698 16.038 53.2298 16.146C 53.3018 16.254 53.4038 16.338 53.5358 16.398C 53.6678 16.446 53.8478 16.47 54.0758 16.47C 54.2198 16.47 54.3638 16.47 54.5078 16.47C 54.6518 16.458 54.7958 16.434 54.9398 16.398L 54.9398 17.982C 54.7118 18.006 54.4898 18.03 54.2738 18.054C 54.0578 18.078 53.8358 18.09 53.6078 18.09C 53.0678 18.09 52.6298 18.042 52.2938 17.946C 51.9698 17.838 51.7118 17.688 51.5198 17.496C 51.3398 17.292 51.2138 17.04 51.1418 16.74C 51.0818 16.44 51.0458 16.098 51.0338 15.714L 51.0338 10.224L 49.4858 10.224L 49.4858 8.694ZM 61.7137 5.148L 67.3837 5.148C 68.2957 5.148 69.0397 5.28 69.6157 5.544C 70.1917 5.808 70.6357 6.138 70.9477 6.534C 71.2597 6.93 71.4697 7.362 71.5777 7.83C 71.6977 8.298 71.7577 8.73 71.7577 9.126C 71.7577 9.522 71.6977 9.954 71.5777 10.422C 71.4697 10.878 71.2597 11.304 70.9477 11.7C 70.6357 12.096 70.1917 12.426 69.6157 12.69C 69.0397 12.942 68.2957 13.068 67.3837 13.068L 63.9637 13.068L 63.9637 18L 61.7137 18L 61.7137 5.148ZM 63.9637 11.232L 67.2577 11.232C 67.5097 11.232 67.7677 11.196 68.0317 11.124C 68.2957 11.052 68.5357 10.938 68.7517 10.782C 68.9797 10.614 69.1597 10.398 69.2917 10.134C 69.4357 9.858 69.5077 9.516 69.5077 9.108C 69.5077 8.688 69.4477 8.34 69.3277 8.064C 69.2077 7.788 69.0457 7.572 68.8417 7.416C 68.6377 7.248 68.4037 7.134 68.1397 7.074C 67.8757 7.014 67.5937 6.984 67.2937 6.984L 63.9637 6.984L 63.9637 11.232ZM 77.6976 18.252C 76.9536 18.252 76.2876 18.132 75.6996 17.892C 75.1236 17.64 74.6316 17.298 74.2236 16.866C 73.8276 16.434 73.5216 15.918 73.3056 15.318C 73.1016 14.718 72.9996 14.058 72.9996 13.338C 72.9996 12.63 73.1016 11.976 73.3056 11.376C 73.5216 10.776 73.8276 10.26 74.2236 9.828C 74.6316 9.396 75.1236 9.06 75.6996 8.82C 76.2876 8.568 76.9536 8.442 77.6976 8.442C 78.4416 8.442 79.1016 8.568 79.6776 8.82C 80.2656 9.06 80.7576 9.396 81.1536 9.828C 81.5616 10.26 81.8676 10.776 82.0716 11.376C 82.2876 11.976 82.3956 12.63 82.3956 13.338C 82.3956 14.058 82.2876 14.718 82.0716 15.318C 81.8676 15.918 81.5616 16.434 81.1536 16.866C 80.7576 17.298 80.2656 17.64 79.6776 17.892C 79.1016 18.132 78.4416 18.252 77.6976 18.252ZM 77.6976 16.632C 78.1536 16.632 78.5496 16.536 78.8856 16.344C 79.2216 16.152 79.4976 15.9 79.7136 15.588C 79.9296 15.276 80.0856 14.928 80.1816 14.544C 80.2896 14.148 80.3436 13.746 80.3436 13.338C 80.3436 12.942 80.2896 12.546 80.1816 12.15C 80.0856 11.754 79.9296 11.406 79.7136 11.106C 79.4976 10.794 79.2216 10.542 78.8856 10.35C 78.5496 10.158 78.1536 10.062 77.6976 10.062C 77.2416 10.062 76.8456 10.158 76.5096 10.35C 76.1736 10.542 75.8976 10.794 75.6816 11.106C 75.4656 11.406 75.3036 11.754 75.1956 12.15C 75.0996 12.546 75.0516 12.942 75.0516 13.338C 75.0516 13.746 75.0996 14.148 75.1956 14.544C 75.3036 14.928 75.4656 15.276 75.6816 15.588C 75.8976 15.9 76.1736 16.152 76.5096 16.344C 76.8456 16.536 77.2416 16.632 77.6976 16.632ZM 84.1015 8.694L 86.0275 8.694L 86.0275 10.494L 86.0635 10.494C 86.1235 10.242 86.2375 9.996 86.4055 9.756C 86.5855 9.516 86.7955 9.3 87.0355 9.108C 87.2875 8.904 87.5635 8.742 87.8635 8.622C 88.1635 8.502 88.4695 8.442 88.7815 8.442C 89.0215 8.442 89.1835 8.448 89.2675 8.46C 89.3635 8.472 89.4595 8.484 89.5555 8.496L 89.5555 10.476C 89.4115 10.452 89.2615 10.434 89.1055 10.422C 88.9615 10.398 88.8175 10.386 88.6735 10.386C 88.3255 10.386 87.9955 10.458 87.6835 10.602C 87.3835 10.734 87.1195 10.938 86.8915 11.214C 86.6635 11.478 86.4835 11.808 86.3515 12.204C 86.2195 12.6 86.1535 13.056 86.1535 13.572L 86.1535 18L 84.1015 18L 84.1015 8.694ZM 89.4936 8.694L 91.0416 8.694L 91.0416 5.904L 93.0936 5.904L 93.0936 8.694L 94.9476 8.694L 94.9476 10.224L 93.0936 10.224L 93.0936 15.192C 93.0936 15.408 93.0996 15.594 93.1116 15.75C 93.1356 15.906 93.1776 16.038 93.2376 16.146C 93.3096 16.254 93.4116 16.338 93.5436 16.398C 93.6756 16.446 93.8556 16.47 94.0836 16.47C 94.2276 16.47 94.3716 16.47 94.5156 16.47C 94.6596 16.458 94.8036 16.434 94.9476 16.398L 94.9476 17.982C 94.7196 18.006 94.4976 18.03 94.2816 18.054C 94.0656 18.078 93.8436 18.09 93.6156 18.09C 93.0756 18.09 92.6376 18.042 92.3016 17.946C 91.9776 17.838 91.7196 17.688 91.5276 17.496C 91.3476 17.292 91.2216 17.04 91.1496 16.74C 91.0896 16.44 91.0536 16.098 91.0416 15.714L 91.0416 10.224L 89.4936 10.224L 89.4936 8.694ZM 104.218 15.93C 104.218 16.182 104.248 16.362 104.308 16.47C 104.38 16.578 104.512 16.632 104.704 16.632C 104.764 16.632 104.836 16.632 104.92 16.632C 105.004 16.632 105.1 16.62 105.208 16.596L 105.208 18.018C 105.136 18.042 105.04 18.066 104.92 18.09C 104.812 18.126 104.698 18.156 104.578 18.18C 104.458 18.204 104.338 18.222 104.218 18.234C 104.098 18.246 103.996 18.252 103.912 18.252C 103.492 18.252 103.144 18.168 102.868 18C 102.592 17.832 102.412 17.538 102.328 17.118C 101.92 17.514 101.416 17.802 100.816 17.982C 100.228 18.162 99.6577 18.252 99.1058 18.252C 98.6857 18.252 98.2837 18.192 97.8998 18.072C 97.5158 17.964 97.1737 17.802 96.8738 17.586C 96.5858 17.358 96.3518 17.076 96.1718 16.74C 96.0038 16.392 95.9198 15.99 95.9198 15.534C 95.9198 14.958 96.0218 14.49 96.2257 14.13C 96.4418 13.77 96.7178 13.488 97.0537 13.284C 97.4017 13.08 97.7857 12.936 98.2057 12.852C 98.6377 12.756 99.0697 12.684 99.5018 12.636C 99.8737 12.564 100.228 12.516 100.564 12.492C 100.9 12.456 101.194 12.402 101.446 12.33C 101.71 12.258 101.914 12.15 102.058 12.006C 102.214 11.85 102.292 11.622 102.292 11.322C 102.292 11.058 102.226 10.842 102.094 10.674C 101.974 10.506 101.818 10.38 101.626 10.296C 101.446 10.2 101.242 10.14 101.014 10.116C 100.786 10.08 100.57 10.062 100.366 10.062C 99.7898 10.062 99.3158 10.182 98.9438 10.422C 98.5718 10.662 98.3618 11.034 98.3138 11.538L 96.2617 11.538C 96.2978 10.938 96.4418 10.44 96.6938 10.044C 96.9458 9.648 97.2638 9.33 97.6478 9.09C 98.0438 8.85 98.4878 8.682 98.9798 8.586C 99.4718 8.49 99.9758 8.442 100.492 8.442C 100.948 8.442 101.398 8.49 101.842 8.586C 102.286 8.682 102.682 8.838 103.03 9.054C 103.39 9.27 103.678 9.552 103.894 9.9C 104.11 10.236 104.218 10.65 104.218 11.142L 104.218 15.93ZM 102.166 13.338C 101.854 13.542 101.47 13.668 101.014 13.716C 100.558 13.752 100.102 13.812 99.6457 13.896C 99.4297 13.932 99.2197 13.986 99.0157 14.058C 98.8118 14.118 98.6318 14.208 98.4757 14.328C 98.3197 14.436 98.1937 14.586 98.0977 14.778C 98.0137 14.958 97.9717 15.18 97.9717 15.444C 97.9717 15.672 98.0378 15.864 98.1698 16.02C 98.3018 16.176 98.4577 16.302 98.6377 16.398C 98.8298 16.482 99.0337 16.542 99.2497 16.578C 99.4777 16.614 99.6817 16.632 99.8617 16.632C 100.09 16.632 100.336 16.602 100.6 16.542C 100.864 16.482 101.11 16.38 101.338 16.236C 101.578 16.092 101.776 15.912 101.932 15.696C 102.088 15.468 102.166 15.192 102.166 14.868L 102.166 13.338ZM 106.48 5.148L 108.532 5.148L 108.532 18L 106.48 18L 106.48 5.148Z"/>
</defs>
</svg>
