<svg width="19" height="19" viewBox="0 0 19 19" version="1.1" xmlns="http://www.w3.org/2000/svg" xmlns:xlink="http://www.w3.org/1999/xlink">
<title>time-calendar-event-date</title>
<desc>Created using Figma</desc>
<g id="Canvas" transform="translate(-1179 -686)">
<g id="time-calendar-event-date">
<g id="Combined Shape">
<use xlink:href="#path0_fill" transform="translate(1179 686)"/>
</g>
<g id="_Path_8">
<use xlink:href="#path1_fill" transform="translate(1185.05 695.5)" fill="#DE4E2A"/>
</g>
<g id="_Path_9">
<use xlink:href="#path2_fill" transform="translate(1189.36 695.5)" fill="#DE4E2A"/>
</g>
</g>
</g>
<defs>
<path id="path0_fill" fill-rule="evenodd" d="M 6.04529 2.59076L 13.8175 2.59076L 13.8176 3.45441C 13.3406 3.45441 12.954 3.84106 12.954 4.31799C 12.954 4.79498 13.3406 5.18158 13.8176 5.18158C 14.2946 5.18158 14.6812 4.79498 14.6812 4.31799L 14.6812 2.59076L 17.272 2.59076C 17.7244 2.59076 18.1355 3.00195 18.1355 3.45435L 18.1355 6.04517L 0.863647 6.04517L 0.863647 3.45435C 0.863647 3.00195 1.27478 2.59076 1.72717 2.59076L 5.18164 2.59076L 5.18164 3.45441C 4.70459 3.45441 4.31799 3.84106 4.31799 4.31799C 4.31799 4.79498 4.70459 5.18158 5.18164 5.18158C 5.65381 5.18158 6.03735 4.80334 6.04504 4.33289C 6.03723 4.56445 5.84692 4.74976 5.6134 4.74976C 5.375 4.74976 5.18164 4.55646 5.18164 4.31799L 5.18164 3.45441C 5.65857 3.45441 6.04517 3.84106 6.04529 4.31799L 6.04529 2.59076ZM 6.04529 1.72717L 13.8175 1.72717L 13.8175 2.59076L 14.6812 2.59076L 14.6812 1.72717L 17.272 1.72717C 18.2013 1.72717 18.9991 2.52502 18.9991 3.45435L 18.9991 6.47699C 18.9991 6.23846 18.8058 6.04517 18.5674 6.04517L 18.1355 6.04517L 18.1355 6.90875L 0.863647 6.90875L 0.863647 6.04517L 0.431763 6.04517C 0.193359 6.04517 0 6.23846 0 6.47699L 0 3.45435C 0 2.52502 0.797852 1.72717 1.72717 1.72717L 5.18164 1.72717L 5.18164 2.59076L 6.04529 2.59076L 6.04529 1.72717ZM 6.04529 1.72717L 6.04529 0.431824C 6.04529 0.193298 5.85193 0 5.6134 0C 5.375 0 5.18164 0.193298 5.18164 0.431824L 5.18164 1.72717L 6.04529 1.72717ZM 14.2241 18.9991L 1.72717 18.9991C 0.797852 18.9991 0 18.2013 0 17.2719L 0 6.47699C 0 6.71545 0.193359 6.90875 0.431763 6.90875L 0.863647 6.90875L 0.863647 17.2719C 0.863647 17.7243 1.27478 18.1355 1.72717 18.1355L 13.8175 18.1355L 13.8175 18.5673C 13.8175 18.8165 14.0127 18.9852 14.2241 18.9991ZM 18.8676 14.5597L 14.5547 18.8727C 14.4589 18.9685 14.3391 19.0067 14.2241 18.9991L 14.2494 18.9991C 14.4878 18.9991 14.6812 18.8058 14.6812 18.5673C 14.6812 18.3289 14.4878 18.1355 14.2494 18.1355L 13.8175 18.1355L 13.8175 15.5447C 13.8175 14.6154 14.6154 13.8176 15.5447 13.8176L 18.1355 13.8176L 18.1355 14.2493C 18.1355 14.4878 18.3289 14.6812 18.5674 14.6812C 18.684 14.6812 18.7898 14.6349 18.8676 14.5597ZM 18.8906 14.5356C 18.8849 14.542 18.8788 14.5485 18.8726 14.5547L 18.8676 14.5597C 18.8755 14.5519 18.8833 14.5439 18.8906 14.5356ZM 18.9991 14.2261C 18.9862 14.0139 18.8173 13.8176 18.5673 13.8176L 18.1355 13.8176L 18.1355 6.90875L 18.5674 6.90875C 18.8058 6.90875 18.9991 6.71545 18.9991 6.47699L 18.9991 14.2261ZM 18.9991 14.2261L 18.9991 14.2493C 18.9991 14.3591 18.9581 14.4594 18.8906 14.5356C 18.9448 14.4751 18.9775 14.4063 18.9917 14.3359C 18.999 14.2994 19.0013 14.2625 18.9991 14.2261ZM 14.6812 1.72717L 14.6812 0.431824C 14.6812 0.193298 14.4878 0 14.2493 0C 14.0109 0 13.8175 0.193298 13.8175 0.431824L 13.8175 1.72717L 14.6812 1.72717ZM 14.6812 4.31799C 14.6812 4.55646 14.4878 4.74976 14.2493 4.74976C 14.0109 4.74976 13.8175 4.55646 13.8175 4.31799L 13.8176 3.45441C 14.2946 3.45441 14.6812 3.84106 14.6812 4.31799ZM 14.6812 15.5447C 14.6812 15.0923 15.0924 14.6812 15.5448 14.6812L 17.5249 14.6812L 14.6812 17.5249L 14.6812 15.5447Z"/>
<path id="path1_fill" fill-rule="evenodd" d="M 1.72719 3.45439C 1.15146 3.45439 1.15146 2.59079 1.72719 2.59079C 2.1796 2.59079 2.59079 2.1796 2.59079 1.72719C 2.59079 1.27479 2.1796 0.863597 1.72719 0.863597C 1.27479 0.863597 0.863597 1.27479 0.863597 1.72719C 0.863597 1.96567 0.670274 2.15899 0.431799 2.15899C 0.193323 2.15899 0 1.96567 0 1.72719C 0 0.797841 0.797841 0 1.72719 0C 2.65655 0 3.45439 0.797841 3.45439 1.72719C 3.45439 2.23419 3.21694 2.70206 2.85022 3.02259C 3.21694 3.34312 3.45439 3.81098 3.45439 4.31799C 3.45439 5.24734 2.65655 6.04518 1.72719 6.04518C 0.797841 6.04518 0 5.24734 0 4.31799C 0 4.07951 0.193323 3.88619 0.431799 3.88619C 0.670274 3.88619 0.863597 4.07951 0.863597 4.31799C 0.863597 4.77039 1.27479 5.18158 1.72719 5.18158C 2.1796 5.18158 2.59079 4.77039 2.59079 4.31799C 2.59079 3.86558 2.1796 3.45439 1.72719 3.45439Z"/>
<path id="path2_fill" fill-rule="evenodd" d="M 0.863597 0.863597L 0.431799 0.863597C 0.193323 0.863597 0 0.670274 0 0.431799C 0 0.193323 0.193323 0 0.431799 0L 1.2954 0C 1.53387 0 1.72719 0.193323 1.72719 0.431799L 1.72719 5.61338C 1.72719 5.85186 1.53387 6.04518 1.2954 6.04518C 1.05692 6.04518 0.863597 5.85186 0.863597 5.61338L 0.863597 0.863597Z"/>
</defs>
</svg>
