<svg width="20" height="20" viewBox="0 0 20 20" version="1.1" xmlns="http://www.w3.org/2000/svg" xmlns:xlink="http://www.w3.org/1999/xlink">
<g id="Canvas" fill="none">
<g id="target-plan-money-finance-strategy">
<g id="_Group_2">
<g id="_Path_6">
<path fill-rule="evenodd" clip-rule="evenodd" d="M 0 9.91666C 0 15.3935 4.44141 19.8333 9.91797 19.8333C 15.3945 19.8333 19.832 15.3935 19.832 9.91666C 19.832 4.43984 15.3945 0 9.91797 0C 4.44141 0 0 4.43984 0 9.91666ZM 18.332 9.91666C 18.332 14.5651 14.5664 18.3333 9.91797 18.3333C 5.26953 18.3333 1.5 14.5651 1.5 9.91666C 1.5 5.26827 5.26953 1.5 9.91797 1.5C 14.5664 1.5 18.332 5.26827 18.332 9.91666Z" transform="translate(0.0820312 0.0833359)" fill="black"/>
</g>
<g id="_Path_7">
<path d="M 0.75 9.83333C 0.335786 9.83333 0 9.49755 0 9.08333C 0 8.66912 0.335786 8.33333 0.75 8.33333L 3.66667 8.33333C 4.40305 8.33333 5 7.73638 5 7C 5 6.26362 4.40305 5.66667 3.66667 5.66667L 2.83333 5.66667C 1.26853 5.66667 0 4.39814 0 2.83333C 0 1.26853 1.26853 0 2.83333 0L 5.75 0C 6.16421 0 6.5 0.335786 6.5 0.75C 6.5 1.16421 6.16421 1.5 5.75 1.5L 2.83333 1.5C 2.09695 1.5 1.5 2.09695 1.5 2.83333C 1.5 3.56971 2.09695 4.16667 2.83333 4.16667L 3.66667 4.16667C 5.23147 4.16667 6.5 5.43519 6.5 7C 6.5 8.56481 5.23147 9.83333 3.66667 9.83333L 0.75 9.83333Z" transform="translate(6.75 5.08334)" fill="#DE4E2A"/>
</g>
<g id="_Path_8">
<path d="M 0 0.75C 0 0.335786 0.335786 0 0.75 0C 1.16421 0 1.5 0.335786 1.5 0.75L 1.5 2.41667C 1.5 2.83088 1.16421 3.16667 0.75 3.16667C 0.335786 3.16667 0 2.83088 0 2.41667L 0 0.75Z" transform="translate(9.25 3.41666)" fill="#DE4E2A"/>
</g>
<g id="_Path_9">
<path d="M 0 0.75C 0 0.335786 0.335786 0 0.75 0C 1.16421 0 1.5 0.335786 1.5 0.75L 1.5 2.41667C 1.5 2.83088 1.16421 3.16667 0.75 3.16667C 0.335786 3.16667 0 2.83088 0 2.41667L 0 0.75Z" transform="translate(9.25 13.4167)" fill="#DE4E2A"/>
</g>
</g>
</g>
</g>
</svg>

