<svg width="15" height="17" viewBox="0 0 15 17" version="1.1" xmlns="http://www.w3.org/2000/svg" xmlns:xlink="http://www.w3.org/1999/xlink">
<title>ashcan</title>
<desc>Created using Figma</desc>
<g id="Canvas" transform="translate(-13408 107)">
<g id="ashcan">
<g id="Combined Shape">
<use xlink:href="#path0_fill" transform="translate(13408 -107)" fill="#414F5C"/>
</g>
</g>
</g>
<defs>
<path id="path0_fill" fill-rule="evenodd" d="M 5.4541 0L 9.54492 0C 10.2988 0 10.9092 0.610519 10.9092 1.36364L 10.9092 2.04546L 9.54492 2.04546L 9.54492 1.36364L 5.4541 1.36364L 5.4541 2.04546L 4.09082 2.04546L 4.09082 1.36364C 4.09082 0.610519 4.70117 0 5.4541 0ZM 1.36328 6.13637C 0.610352 6.13637 0 5.52584 0 4.77273L 0 3.4091C 0 2.65598 0.610352 2.04546 1.36328 2.04546L 4.09082 2.04546C 4.09082 2.79857 4.70117 3.40909 5.4541 3.40909L 1.36328 3.40909L 1.36328 4.77273L 2.72656 4.77273C 1.97363 4.77273 1.36328 5.38325 1.36328 6.13637ZM 13.6367 6.13637L 13.6357 15C 13.6357 15.7531 13.0254 16.3636 12.2725 16.3636L 2.72656 16.3636C 1.97363 16.3636 1.36328 15.7531 1.36328 15L 1.36328 6.13637L 2.72754 6.13636L 2.72754 15L 12.2734 15L 12.2734 6.13636L 13.6367 6.13637ZM 13.6367 6.13637C 14.3896 6.13637 15 5.52584 15 4.77273L 15 3.4091C 15 2.65598 14.3896 2.04546 13.6367 2.04546L 10.9092 2.04546C 10.9092 2.79857 10.2988 3.40909 9.54492 3.40909L 13.6357 3.40909L 13.6357 4.77273L 12.2725 4.77273C 13.0254 4.77273 13.6357 5.38325 13.6367 6.13637ZM 4.77246 8.18182C 4.39648 8.18182 4.09082 8.48708 4.09082 8.86363L 4.09082 12.2727C 4.09082 12.6493 4.39648 12.9545 4.77246 12.9545C 5.14941 12.9545 5.4541 12.6493 5.4541 12.2727L 5.4541 8.86363C 5.4541 8.48708 5.14941 8.18182 4.77246 8.18182ZM 6.81836 8.86363C 6.81836 8.48708 7.12402 8.18182 7.5 8.18182C 7.87695 8.18182 8.18164 8.48708 8.18164 8.86363L 8.18164 12.2727C 8.18164 12.6493 7.87695 12.9545 7.5 12.9545C 7.12402 12.9545 6.81836 12.6493 6.81836 12.2727L 6.81836 8.86363ZM 10.2275 8.18182C 9.85156 8.18182 9.5459 8.48708 9.5459 8.86363L 9.5459 12.2727C 9.5459 12.6493 9.85156 12.9545 10.2275 12.9545C 10.6045 12.9545 10.9092 12.6493 10.9092 12.2727L 10.9092 8.86363C 10.9092 8.48708 10.6045 8.18182 10.2275 8.18182Z"/>
</defs>
</svg>
