<svg width="17" height="17" viewBox="0 0 17 17" fill="none" xmlns="http://www.w3.org/2000/svg">
<path d="M4.33083 3.62372C4.52609 3.81898 4.52609 4.13556 4.33083 4.33083C4.13556 4.52609 3.81898 4.52609 3.62372 4.33083L0.146447 0.853553C-0.0488155 0.658291 -0.0488155 0.341709 0.146447 0.146447C0.341709 -0.0488155 0.658291 -0.0488155 0.853553 0.146447L4.33083 3.62372Z" transform="translate(9.63672 2.88636)" fill="#DE4E2A"/>
<path d="M4.1327 2.09824C4.30209 2.18294 4.40909 2.35607 4.40909 2.54545V3.90909C4.40909 4.18523 4.18523 4.40909 3.90909 4.40909C3.63295 4.40909 3.40909 4.18523 3.40909 3.90909V2.85447L2.32185 2.31085C2.22508 2.26247 2.14662 2.18401 2.09824 2.08724L1.55462 1H0.5C0.223858 1 0 0.776142 0 0.5C0 0.223858 0.223858 0 0.5 0H1.86364C2.05302 0 2.22615 0.107001 2.31085 0.276393L2.91813 1.49096L4.1327 2.09824Z" transform="translate(2.2041 10.3864)" fill="#DE4E2A"/>
<path d="M2.83083 2.12372C3.02609 2.31898 3.02609 2.63556 2.83083 2.83083C2.63556 3.02609 2.31898 3.02609 2.12372 2.83083L0.146447 0.853553C-0.0488155 0.658291 -0.0488155 0.341709 0.146447 0.146447C0.341709 -0.0488155 0.658291 -0.0488155 0.853553 0.146447L2.83083 2.12372Z" transform="translate(1.59082 12.4318)" fill="#DE4E2A"/>
<path d="M7.30554 0.146447C7.5008 -0.0488155 7.81738 -0.0488155 8.01264 0.146447C8.20791 0.341709 8.20791 0.658291 8.01264 0.853553L0.853553 8.01264C0.658291 8.20791 0.341709 8.20791 0.146447 8.01264C-0.0488155 7.81738 -0.0488155 7.5008 0.146447 7.30554L7.30554 0.146447Z" transform="translate(4.25 4.59091)" fill="#DE4E2A"/>
<path fill-rule="evenodd" clip-rule="evenodd" d="M10.6475 0.453262L1.50781 9.72862C1.44922 9.78825 1.40625 9.86169 1.38379 9.94218L0.0195312 14.7149C-0.0878906 15.0921 0.260742 15.4408 0.637695 15.333L5.41113 13.9694C5.49219 13.9461 5.56641 13.9023 5.62695 13.8422L14.8311 4.63764C15.4355 4.03329 15.4355 3.10307 14.8311 2.49872L12.7861 0.453262C12.1816 -0.151085 11.251 -0.151085 10.6475 0.453262ZM1.22852 14.1243L2.30957 10.3396L11.3564 1.15775C11.5684 0.946548 11.8652 0.946548 12.0791 1.16037L14.124 3.20583C14.3379 3.41965 14.3379 3.71671 14.124 3.93054L5.01172 13.0435L1.22852 14.1243Z" transform="translate(0.839844 0.806816)" fill="black"/>
</svg>
