<svg width="13" height="22" viewBox="0 0 13 22" version="1.1" xmlns="http://www.w3.org/2000/svg" xmlns:xlink="http://www.w3.org/1999/xlink">
<title>Filled_Icons</title>
<desc>Created using Figma</desc>
<g id="Canvas" transform="translate(-7389 223)">
<g id="Filled_Icons">
<g id="Shape">
<use xlink:href="#path0_fill" transform="translate(7389.76 -222.04)" fill="#A9AAAD"/>
</g>
</g>
</g>
<defs>
<path id="path0_fill" fill-rule="evenodd" d="M 9.6001 0L 9.6001 1.92C 10.6587 1.92 11.52 2.78111 11.52 3.84L 11.52 18.24C 11.52 19.2998 10.6587 20.16 9.6001 20.16L 1.91992 20.16C 0.861328 20.16 0 19.2998 0 18.24L 0 3.84C 0 2.78111 0.861328 1.92 1.91992 1.92L 7.68018 1.92L 7.68018 0L 9.6001 0ZM 2.87988 15.36C 2.87988 15.8909 3.31006 16.32 3.83984 16.32C 4.36963 16.32 4.7998 15.8909 4.7998 15.36C 4.7998 14.8291 4.36963 14.4 3.83984 14.4C 3.31006 14.4 2.87988 14.8291 2.87988 15.36ZM 3.83984 12.48C 3.31006 12.48 2.87988 12.0509 2.87988 11.52C 2.87988 10.9891 3.31006 10.56 3.83984 10.56C 4.36963 10.56 4.7998 10.9891 4.7998 11.52C 4.7998 12.0509 4.36963 12.48 3.83984 12.48ZM 6.72021 15.36C 6.72021 15.8909 7.15039 16.32 7.68018 16.32C 8.20996 16.32 8.64014 15.8909 8.64014 15.36C 8.64014 14.8291 8.20996 14.4 7.68018 14.4C 7.15039 14.4 6.72021 14.8291 6.72021 15.36ZM 7.68018 12.48C 7.15039 12.48 6.72021 12.0509 6.72021 11.52C 6.72021 10.9891 7.15039 10.56 7.68018 10.56C 8.20996 10.56 8.64014 10.9891 8.64014 11.52C 8.64014 12.0509 8.20996 12.48 7.68018 12.48ZM 1.91992 7.67999L 9.6001 7.67999L 9.6001 3.84L 1.91992 3.84L 1.91992 7.67999Z"/>
</defs>
</svg>
