<svg width="14" height="15" viewBox="0 0 14 15" version="1.1" xmlns="http://www.w3.org/2000/svg" xmlns:xlink="http://www.w3.org/1999/xlink">
<g id="Canvas" fill="none">
<g id="icon-direction-sign">
<g id="Line_Icons">
<g id="Path 2">
<g id="Mask">
<path fill-rule="evenodd" clip-rule="evenodd" d="M 10.8008 5.76C 10.9902 5.76 11.1738 5.6844 11.3086 5.54976L 12.75 4.10976C 13.0312 3.82824 13.0312 3.3732 12.75 3.09168L 11.3086 1.65168C 11.1738 1.5156 10.9902 1.44 10.8008 1.44L 7.19922 1.44L 7.19922 0L 5.75977 0L 5.75977 1.44L 1.43945 1.44C 1.04297 1.44 0.720703 1.76328 0.720703 2.16L 0.720703 5.04C 0.720703 5.43816 1.04297 5.76 1.43945 5.76L 5.75977 5.76L 5.75977 7.2L 2.16016 7.2C 1.96875 7.2 1.78516 7.27632 1.65039 7.41096L 0.210938 8.85096C -0.0703125 9.13248 -0.0703125 9.58752 0.210938 9.86904L 1.65039 11.309C 1.78516 11.4444 1.96875 11.52 2.16016 11.52L 5.75977 11.52L 5.75977 14.4L 7.19922 14.4L 7.19922 11.52L 11.5195 11.52C 11.918 11.52 12.2402 11.1982 12.2402 10.8L 12.2402 7.92C 12.2402 7.52328 11.918 7.2 11.5195 7.2L 7.19922 7.2L 7.19922 5.76L 10.8008 5.76ZM 10.8008 8.64L 10.8008 10.08L 2.45898 10.08L 1.73828 9.36L 2.45898 8.64L 10.8008 8.64ZM 10.502 2.88L 2.16016 2.88L 2.16016 4.32L 10.502 4.32L 11.2227 3.6L 10.502 2.88Z" transform="translate(0.439453 0.43928)" fill="black"/>
</g>
<mask id="mask0" mask-type="alpha" maskUnits="userSpaceOnUse" x="0" y="0" width="14" height="15">
<g id="Mask_2">
<path fill-rule="evenodd" clip-rule="evenodd" d="M 10.8008 5.76C 10.9902 5.76 11.1738 5.6844 11.3086 5.54976L 12.75 4.10976C 13.0312 3.82824 13.0312 3.3732 12.75 3.09168L 11.3086 1.65168C 11.1738 1.5156 10.9902 1.44 10.8008 1.44L 7.19922 1.44L 7.19922 0L 5.75977 0L 5.75977 1.44L 1.43945 1.44C 1.04297 1.44 0.720703 1.76328 0.720703 2.16L 0.720703 5.04C 0.720703 5.43816 1.04297 5.76 1.43945 5.76L 5.75977 5.76L 5.75977 7.2L 2.16016 7.2C 1.96875 7.2 1.78516 7.27632 1.65039 7.41096L 0.210938 8.85096C -0.0703125 9.13248 -0.0703125 9.58752 0.210938 9.86904L 1.65039 11.309C 1.78516 11.4444 1.96875 11.52 2.16016 11.52L 5.75977 11.52L 5.75977 14.4L 7.19922 14.4L 7.19922 11.52L 11.5195 11.52C 11.918 11.52 12.2402 11.1982 12.2402 10.8L 12.2402 7.92C 12.2402 7.52328 11.918 7.2 11.5195 7.2L 7.19922 7.2L 7.19922 5.76L 10.8008 5.76ZM 10.8008 8.64L 10.8008 10.08L 2.45898 10.08L 1.73828 9.36L 2.45898 8.64L 10.8008 8.64ZM 10.502 2.88L 2.16016 2.88L 2.16016 4.32L 10.502 4.32L 11.2227 3.6L 10.502 2.88Z" transform="translate(0.439453 0.43928)" fill="white"/>
</g>
</mask>
<g mask="url(#mask0)">
<g id="Path 2_2">
<path fill-rule="evenodd" clip-rule="evenodd" d="M 0.307983 0L 0.307983 4.47583L 5.51929 4.47583L 11.2628 4.42416L 13.5454 2.23792L 10.6707 0L 0 0L 0.307983 0Z" transform="translate(0.691406 1.79419)" fill="#DE4E2A"/>
</g>
</g>
</g>
</g>
</g>
</g>
</svg>

