<svg width="14" height="15" viewBox="0 0 14 15" version="1.1" xmlns="http://www.w3.org/2000/svg" xmlns:xlink="http://www.w3.org/1999/xlink">
<g id="Canvas" fill="none">
<g id="move-down-3">
<g id="Line_Icons">
<g id="Group">
<g id="Shape">
<path d="M 2.66904 0L 2.66904 6.18192L 1.01808 4.53096L 0 5.54904L 3.38904 8.93808L 6.77808 5.54904L 5.76 4.53096L 4.10904 6.18192L 4.10904 0L 2.66904 0Z" transform="translate(3.25 0.439285)" fill="white"/>
</g>
<g id="Shape_2">
<path fill-rule="evenodd" clip-rule="evenodd" d="M 0 2.88L 0 1.44C 0 0.645844 0.644531 0 1.44141 0L 11.5195 0C 12.3164 0 12.9609 0.645126 12.9609 1.44L 12.9609 2.88C 12.9609 3.67488 12.3164 4.32001 11.5195 4.32001L 1.44141 4.32001C 0.644531 4.32001 0 3.67488 0 2.88ZM 11.5195 1.44L 1.44141 1.44L 1.44141 2.88L 11.5195 2.88L 11.5195 1.44Z" transform="translate(0.160156 10.5193)" fill="white"/>
</g>
</g>
</g>
</g>
</g>
</svg>

