<svg width="18" height="18" viewBox="0 0 18 18" version="1.1" xmlns="http://www.w3.org/2000/svg" xmlns:xlink="http://www.w3.org/1999/xlink">
<title>icon - edit</title>
<desc>Created using Figma</desc>
<g id="Canvas" transform="translate(901 -909)">
<g id="icon - edit">
<g id="Line_Icons">
<g id="Group">
<g id="Shape">
<use xlink:href="#path0_fill" transform="translate(-900.882 913.953)" fill="#43496A"/>
</g>
<g id="Shape">
<use xlink:href="#path1_fill" transform="translate(-892.961 909.6)" fill="#43496A"/>
</g>
</g>
</g>
</g>
</g>
<defs>
<path id="path0_fill" d="M 13.4269 5.00688C 13.5846 5.46984 13.6803 5.9508 13.6803 6.44688C 13.6803 9.22608 11.0962 11.4869 7.92031 11.4869L 2.37127 11.4869L 3.32743 10.4573C 3.57799 10.1873 3.58447 9.77184 3.34255 9.49392C 2.56927 8.60688 2.16031 7.55352 2.16031 6.44688C 2.16031 3.88152 4.36351 1.76256 7.20031 1.4508L 7.20031 0C 3.56719 0.32544 0.720313 3.09312 0.720313 6.44688C 0.720313 7.69608 1.10983 8.88912 1.85287 9.9288L 0.192553 11.7173C -0.00256711 11.9268 -0.0544071 12.2321 0.0600729 12.4949C 0.174553 12.757 0.433753 12.9269 0.720313 12.9269L 7.92031 12.9269C 11.8904 12.9269 15.1203 10.0202 15.1203 6.44688C 15.1203 5.95944 15.0526 5.47704 14.9331 5.00688L 13.4269 5.00688Z"/>
<path id="path1_fill" fill-rule="evenodd" d="M 6.98877 0.211121C 6.70721 -0.0703735 6.2522 -0.0703735 5.9707 0.211121L 0.930664 5.25116C 0.876709 5.30591 0.831543 5.36847 0.797119 5.43658C 0.773132 5.48395 0.754333 5.534 0.741333 5.58594L 0.0213013 8.46594C -0.039856 8.71216 0.0328369 8.97137 0.211426 9.14996C 0.389954 9.32776 0.64917 9.40125 0.894653 9.33929L 3.77466 8.61932C 3.83759 8.60358 3.89764 8.57935 3.95355 8.54773C 4.01025 8.51569 4.06268 8.47601 4.1095 8.42993L 9.14948 3.38995C 9.4303 3.10773 9.43103 2.65338 9.14948 2.37189L 6.98877 0.211121ZM 3.23108 7.27002L 1.70898 7.65088L 2.09058 6.12878L 4.3197 3.89825L 5.46088 5.04016L 3.23108 7.27002ZM 5.33783 2.88019L 6.47974 4.02283L 7.62164 2.88019L 6.47974 1.73828L 5.33783 2.88019Z"/>
</defs>
</svg>
