<svg width="13" height="11" viewBox="0 0 13 11" fill="none" xmlns="http://www.w3.org/2000/svg">
<path d="M8.75 6.25H1.25V1.25H1.875V0H0.625C0.28 0 0 0.28 0 0.625V6.875C0 7.22 0.28 7.5 0.625 7.5H9.375C9.72 7.5 10 7.22 10 6.875V5.625H8.75V6.25Z" transform="translate(0.25 2.99998)" fill="#757575"/>
<path fill-rule="evenodd" clip-rule="evenodd" d="M8.75 0H1.25C0.560547 0 0 0.561249 0 1.25V6.25C0 6.93938 0.560547 7.5 1.25 7.5H8.75C9.43945 7.5 10 6.93938 10 6.25V1.25C10 0.561249 9.43945 0 8.75 0ZM7.4248 1.25L5 2.98125L2.5752 1.25H7.4248ZM1.25 1.83875V6.25H8.75098L8.75 1.83875L5.36328 4.25813C5.25391 4.33562 5.12793 4.375 5 4.375C4.87207 4.375 4.74609 4.33562 4.63672 4.25813L1.25 1.83875Z" transform="translate(2.75 0.499985)" fill="#757575"/>
</svg>
