<svg width="18" height="13" viewBox="0 0 18 13" version="1.1" xmlns="http://www.w3.org/2000/svg" xmlns:xlink="http://www.w3.org/1999/xlink">
<title>View</title>
<desc>Created using Figma</desc>
<g id="Canvas" transform="translate(-9923 -163)">
<g id="View" opacity="0.5">
<use xlink:href="#path0_fill" transform="translate(9923 163)" fill="#C6CBD4"/>
</g>
</g>
<defs>
<path id="path0_fill" fill-rule="evenodd" d="M 9.01919 0C 11.0405 0 12.8635 0.602598 14.4883 1.80781C 16.113 3.01303 17.2836 4.57707 18 6.5C 17.2836 8.42293 16.113 9.98697 14.4883 11.1922C 12.8635 12.3974 11.0405 13 9.01919 13C 6.99786 13 5.16845 12.3974 3.53092 11.1922C 1.89338 9.98697 0.716421 8.42293 0 6.5C 0.716421 4.57707 1.89338 3.01303 3.53092 1.80781C 5.16845 0.602598 6.99786 0 9.01919 0ZM 9.01878 11C 10.1205 11 11.0595 10.5584 11.8357 9.67523C 12.6119 8.79205 13 7.73365 13 6.5C 13 5.26635 12.6119 4.20795 11.8357 3.32477C 11.0595 2.44158 10.1205 2 9.01878 2C 7.91705 2 6.97184 2.44158 6.1831 3.32477C 5.39436 4.20795 5 5.26635 5 6.5C 5 7.73365 5.39436 8.79205 6.1831 9.67523C 6.97184 10.5584 7.91705 11 9.01878 11ZM 9.48047 4C 10.1706 4 10.763 4.24088 11.2578 4.72266C 11.7526 5.20443 12 5.79687 12 6.5C 12 7.20313 11.7526 7.79557 11.2578 8.27734C 10.763 8.75912 10.1706 9 9.48047 9C 8.79036 9 8.20443 8.75912 7.72266 8.27734C 7.24088 7.79557 7 7.20313 7 6.5C 7 5.79687 7.24088 5.20443 7.72266 4.72266C 8.20443 4.24088 8.79036 4 9.48047 4Z"/>
</defs>
</svg>
