<svg width="7" height="12" viewBox="0 0 7 12" version="1.1" xmlns="http://www.w3.org/2000/svg" xmlns:xlink="http://www.w3.org/1999/xlink">
<title>Shape</title>
<desc>Created using Figma</desc>
<g id="Canvas" transform="translate(-6726 -42)">
<g id="Shape">
<use xlink:href="#path0_fill" transform="translate(6727 43)" fill="#A2A5AA"/>
<use xlink:href="#path1_stroke" transform="translate(6727 43)" fill="#A2A5AA"/>
</g>
</g>
<defs>
<path id="path0_fill" d="M 0.0577833 0.352338C -0.0217483 0.269192 -0.0188177 0.137315 0.0643289 0.0577833C 0.147476 -0.0217483 0.279352 -0.0188177 0.358884 0.0643289L 4.94222 4.856C 5.01926 4.93654 5.01926 5.06346 4.94222 5.144L 0.358884 9.93567C 0.279352 10.0188 0.147476 10.0217 0.0643289 9.94222C -0.0188177 9.86269 -0.0217483 9.73081 0.0577833 9.64766L 4.50337 5L 0.0577833 0.352338Z"/>
<path id="path1_stroke" d="M 0.0577833 0.352338L -0.303538 0.69795L 0.0577833 0.352338ZM 0.358884 0.0643289L 0.720205 -0.281282L 0.358884 0.0643289ZM 4.94222 4.856L 4.5809 5.20161L 4.94222 4.856ZM 4.94222 5.144L 4.5809 4.79839L 4.94222 5.144ZM 0.358884 9.93567L 0.720205 10.2813L 0.358884 9.93567ZM 0.0577833 9.64766L -0.303538 9.30205L -0.303538 9.30205L 0.0577833 9.64766ZM 4.50337 5L 4.86469 5.34561L 5.19528 5L 4.86469 4.65439L 4.50337 5ZM 0.419104 0.00672705C 0.530448 0.123132 0.526346 0.30776 0.40994 0.419104L -0.281282 -0.303538C -0.563981 -0.0331302 -0.573945 0.415251 -0.303538 0.69795L 0.419104 0.00672705ZM 0.40994 0.419104C 0.293535 0.530448 0.108907 0.526346 -0.00243689 0.40994L 0.720205 -0.281282C 0.449797 -0.563981 0.00141634 -0.573945 -0.281282 -0.303538L 0.40994 0.419104ZM -0.00243689 0.40994L 4.5809 5.20161L 5.30354 4.51038L 0.720205 -0.281282L -0.00243689 0.40994ZM 4.5809 5.20161C 4.47303 5.08884 4.47303 4.91116 4.5809 4.79839L 5.30354 5.48962C 5.56549 5.21576 5.56549 4.78424 5.30354 4.51038L 4.5809 5.20161ZM 4.5809 4.79839L -0.0024369 9.59006L 0.720205 10.2813L 5.30354 5.48962L 4.5809 4.79839ZM -0.00243689 9.59006C 0.108906 9.47366 0.293534 9.46955 0.40994 9.5809L -0.281282 10.3035C 0.00141746 10.5739 0.449799 10.564 0.720205 10.2813L -0.00243689 9.59006ZM 0.40994 9.5809C 0.526346 9.69224 0.530448 9.87687 0.419104 9.99327L -0.303538 9.30205C -0.573945 9.58475 -0.563981 10.0331 -0.281282 10.3035L 0.40994 9.5809ZM 0.419104 9.99327L 4.86469 5.34561L 4.14205 4.65439L -0.303538 9.30205L 0.419104 9.99327ZM 4.86469 4.65439L 0.419104 0.00672705L -0.303538 0.69795L 4.14205 5.34561L 4.86469 4.65439Z"/>
</defs>
</svg>
