<svg width="16" height="14" viewBox="0 0 16 14" version="1.1" xmlns="http://www.w3.org/2000/svg" xmlns:xlink="http://www.w3.org/1999/xlink">
<g id="Canvas" fill="none">
<g id="icon-id-card-1">
<g id="Line_Icons">
<g id="Group">
<g id="Group_2">
<g id="Shape">
<path d="M 0 2.25C 0 0.86925 0.86925 0 2.25 0C 3.63075 0 4.5 0.86925 4.5 2.25L 0 2.25Z" transform="translate(2.75 8.5)" fill="#DE4E2A"/>
</g>
<g id="Oval">
<path d="M 1.5 3C 2.32843 3 3 2.32843 3 1.5C 3 0.671573 2.32843 0 1.5 0C 0.671573 0 0 0.671573 0 1.5C 0 2.32843 0.671573 3 1.5 3Z" transform="translate(3.5 4.75)" fill="#DE4E2A"/>
</g>
</g>
<g id="Rectangle-path">
<path d="M 0 0L 4.5 0L 4.5 1.5L 0 1.5L 0 0Z" transform="translate(8.75 6.25)" fill="#DE4E2A"/>
</g>
<g id="Rectangle-path_2">
<path d="M 0 0L 4.5 0L 4.5 1.5L 0 1.5L 0 0Z" transform="translate(8.75 9.25)" fill="#DE4E2A"/>
</g>
<g id="Shape_2">
<path fill-rule="evenodd" clip-rule="evenodd" d="M 13.5 1.5L 9.61133 1.5C 9.30078 0.628502 8.47656 0 7.5 0C 6.52344 0 5.69922 0.628502 5.38867 1.5L 1.5 1.5C 0.671875 1.5 0 2.172 0 3L 0 12C 0 12.8273 0.671875 13.5 1.5 13.5L 13.5 13.5C 14.3281 13.5 15 12.8273 15 12L 15 3C 15 2.172 14.3281 1.5 13.5 1.5ZM 7.5 1.5C 7.91406 1.5 8.25 1.83675 8.25 2.25C 8.25 2.66325 7.91406 3 7.5 3C 7.08594 3 6.75 2.66325 6.75 2.25C 6.75 1.83675 7.08594 1.5 7.5 1.5ZM 1.5 3L 1.5 12L 13.5 12L 13.5 3L 9.61133 3C 9.30078 3.8715 8.47656 4.5 7.5 4.5C 6.52344 4.5 5.69922 3.8715 5.38867 3L 1.5 3Z" transform="translate(0.5 0.25)" fill="black"/>
</g>
</g>
</g>
</g>
</g>
</svg>

