<svg width="12" height="12" viewBox="0 0 12 12" version="1.1" xmlns="http://www.w3.org/2000/svg" xmlns:xlink="http://www.w3.org/1999/xlink">
<g id="Canvas" fill="none">
<g id="location-gps-on-2">
<g id="Line_Icons">
<g id="Group">
<g id="Oval">
<path d="M 1.68 3.36C 2.60784 3.36 3.36 2.60784 3.36 1.68C 3.36 0.752162 2.60784 0 1.68 0C 0.752162 0 0 0.752162 0 1.68C 0 2.60784 0.752162 3.36 1.68 3.36Z" transform="translate(4.04297 4.03999)" fill="#DE4E2A"/>
</g>
<g id="Shape">
<path fill-rule="evenodd" clip-rule="evenodd" d="M 10.043 5.03999L 11.1992 5.03999L 11.1992 6.16L 10.043 6.16C 9.78906 8.18272 8.18359 9.78712 6.16016 10.0414L 6.16016 11.2L 5.03906 11.2L 5.03906 10.0414C 3.01562 9.78767 1.41406 8.18272 1.16016 6.16L 0 6.16L 0 5.03999L 1.16016 5.03999C 1.41406 3.01727 3.01953 1.41289 5.03906 1.15865L 5.03906 0L 6.16016 0L 6.16016 1.15865C 8.18359 1.41289 9.78906 3.01727 10.043 5.03999ZM 2.23828 5.60001C 2.23828 7.45248 3.74609 8.96001 5.59766 8.96001C 7.45312 8.96001 8.95703 7.45248 8.95703 5.60001C 8.95703 3.74753 7.45312 2.24001 5.59766 2.24001C 3.74609 2.24001 2.23828 3.74753 2.23828 5.60001Z" transform="translate(0.121094 0.119995)" fill="black"/>
</g>
</g>
</g>
</g>
</g>
</svg>

