<svg width="9" height="13" viewBox="0 0 9 13" version="1.1" xmlns="http://www.w3.org/2000/svg" xmlns:xlink="http://www.w3.org/1999/xlink">
<title>Group</title>
<desc>Created using Figma</desc>
<g id="Canvas" transform="translate(-9594 -167)">
<g id="Group">
<g id="Oval">
<use xlink:href="#path0_fill" transform="translate(9597.56 175.375)" fill="#757575"/>
</g>
<g id="Shape">
<use xlink:href="#path1_fill" transform="translate(9594.12 167.25)" fill="#757575"/>
</g>
</g>
</g>
<defs>
<path id="path0_fill" d="M 0.9375 1.875C 1.45527 1.875 1.875 1.45527 1.875 0.9375C 1.875 0.419733 1.45527 0 0.9375 0C 0.419733 0 0 0.419733 0 0.9375C 0 1.45527 0.419733 1.875 0.9375 1.875Z"/>
<path id="path1_fill" fill-rule="evenodd" d="M 7.5 5.625L 7.5 3.125C 7.5 1.40187 6.09766 0 4.375 0C 2.65234 0 1.25 1.40187 1.25 3.125L 1.25 5.625C 0.55957 5.625 0 6.185 0 6.875L 0 11.25C 0 11.9394 0.55957 12.5 1.25 12.5L 7.5 12.5C 8.19043 12.5 8.75 11.9394 8.75 11.25L 8.75 6.875C 8.75 6.185 8.19043 5.625 7.5 5.625ZM 2.5 3.125C 2.5 2.09125 3.34082 1.25 4.375 1.25C 5.40918 1.25 6.25 2.09125 6.25 3.125L 6.25 5.625L 2.5 5.625L 2.5 3.125ZM 1.25 6.875L 1.25 11.25L 7.50098 11.25L 7.5 6.875L 1.25 6.875Z"/>
</defs>
</svg>
