<svg width="17" height="17" viewBox="0 0 17 17" version="1.1" xmlns="http://www.w3.org/2000/svg" xmlns:xlink="http://www.w3.org/1999/xlink">
<title>design-pencil-ruler-grid-guide</title>
<desc>Created using Figma</desc>
<g id="Canvas" transform="translate(-15910 68)">
<g id="design-pencil-ruler-grid-guide">
<g id="_Path_2">
<use xlink:href="#path0_fill" transform="translate(15919.6 -65.1136)" fill="#DE4E2A"/>
</g>
<g id="_Path_3">
<use xlink:href="#path1_fill" transform="translate(15912.2 -57.6136)" fill="#DE4E2A"/>
</g>
<g id="_Path_4">
<use xlink:href="#path2_fill" transform="translate(15911.6 -55.5682)" fill="#DE4E2A"/>
</g>
<g id="_Path_5">
<use xlink:href="#path3_fill" transform="translate(15914.2 -63.4091)" fill="#DE4E2A"/>
</g>
<g id="_Path_">
<use xlink:href="#path4_fill" transform="translate(15910.8 -67.1932)"/>
</g>
<g id="_Path_6">
<use xlink:href="#path5_fill" transform="translate(15910.8 -67.1591)"/>
</g>
<g id="_Path_7">
<use xlink:href="#path6_fill" transform="translate(15918 -60)"/>
</g>
<g id="_Path_8">
<use xlink:href="#path7_fill" transform="translate(15920.4 -55.5682)"/>
</g>
<g id="_Path_9">
<use xlink:href="#path7_fill" transform="translate(15919 -56.9318)"/>
</g>
<g id="_Path_10">
<use xlink:href="#path7_fill" transform="translate(15913.6 -62.3864)"/>
</g>
<g id="_Path_11">
<use xlink:href="#path7_fill" transform="translate(15912.2 -63.75)"/>
</g>
</g>
</g>
<defs>
<path id="path0_fill" d="M 4.33083 3.62372C 4.52609 3.81898 4.52609 4.13556 4.33083 4.33083C 4.13556 4.52609 3.81898 4.52609 3.62372 4.33083L 0.146447 0.853553C -0.0488155 0.658291 -0.0488155 0.341709 0.146447 0.146447C 0.341709 -0.0488155 0.658291 -0.0488155 0.853553 0.146447L 4.33083 3.62372Z"/>
<path id="path1_fill" d="M 4.1327 2.09824C 4.30209 2.18294 4.40909 2.35607 4.40909 2.54545L 4.40909 3.90909C 4.40909 4.18523 4.18523 4.40909 3.90909 4.40909C 3.63295 4.40909 3.40909 4.18523 3.40909 3.90909L 3.40909 2.85447L 2.32185 2.31085C 2.22508 2.26247 2.14662 2.18401 2.09824 2.08724L 1.55462 1L 0.5 1C 0.223858 1 0 0.776142 0 0.5C 0 0.223858 0.223858 0 0.5 0L 1.86364 0C 2.05302 0 2.22615 0.107001 2.31085 0.276393L 2.91813 1.49096L 4.1327 2.09824Z"/>
<path id="path2_fill" d="M 2.83083 2.12372C 3.02609 2.31898 3.02609 2.63556 2.83083 2.83083C 2.63556 3.02609 2.31898 3.02609 2.12372 2.83083L 0.146447 0.853553C -0.0488155 0.658291 -0.0488155 0.341709 0.146447 0.146447C 0.341709 -0.0488155 0.658291 -0.0488155 0.853553 0.146447L 2.83083 2.12372Z"/>
<path id="path3_fill" d="M 7.30554 0.146447C 7.5008 -0.0488155 7.81738 -0.0488155 8.01264 0.146447C 8.20791 0.341709 8.20791 0.658291 8.01264 0.853553L 0.853553 8.01264C 0.658291 8.20791 0.341709 8.20791 0.146447 8.01264C -0.0488155 7.81738 -0.0488155 7.5008 0.146447 7.30554L 7.30554 0.146447Z"/>
<path id="path4_fill" fill-rule="evenodd" d="M 10.6475 0.453262L 1.50781 9.72862C 1.44922 9.78825 1.40625 9.86169 1.38379 9.94218L 0.0195312 14.7149C -0.0878906 15.0921 0.260742 15.4408 0.637695 15.333L 5.41113 13.9694C 5.49219 13.9461 5.56641 13.9023 5.62695 13.8422L 14.8311 4.63765C 15.4355 4.03329 15.4355 3.10307 14.8311 2.49872L 12.7861 0.453262C 12.1816 -0.151085 11.251 -0.151085 10.6475 0.453262ZM 1.22852 14.1243L 2.30957 10.3396L 11.3564 1.15775C 11.5684 0.946548 11.8652 0.946548 12.0791 1.16037L 14.124 3.20583C 14.3379 3.41966 14.3379 3.71671 14.124 3.93054L 5.01172 13.0435L 1.22852 14.1243Z"/>
<path id="path5_fill" d="M 1.20711 3.90909L 4.60355 7.30554C 4.79882 7.5008 4.79882 7.81738 4.60355 8.01264C 4.40829 8.20791 4.09171 8.20791 3.89645 8.01264L 0.146447 4.26264C -0.0488155 4.06738 -0.0488155 3.7508 0.146447 3.55554L 3.55554 0.146447C 3.7508 -0.0488155 4.06738 -0.0488155 4.26264 0.146447L 8.01264 3.89645C 8.20791 4.09171 8.20791 4.40829 8.01264 4.60355C 7.81738 4.79882 7.5008 4.79882 7.30554 4.60355L 3.90909 1.20711L 1.20711 3.90909Z"/>
<path id="path6_fill" d="M 3.55554 0.853553C 3.36028 0.658291 3.36028 0.341709 3.55554 0.146447C 3.7508 -0.0488155 4.06738 -0.0488155 4.26264 0.146447L 8.01264 3.89645C 8.20791 4.09171 8.20791 4.40829 8.01264 4.60355L 4.60355 8.01264C 4.40829 8.20791 4.09171 8.20791 3.89645 8.01264L 0.146447 4.26264C -0.0488155 4.06738 -0.0488155 3.7508 0.146447 3.55554C 0.341709 3.36028 0.658291 3.36028 0.853553 3.55554L 4.25 6.95198L 6.95198 4.25L 3.55554 0.853553Z"/>
<path id="path7_fill" d="M 0.853553 2.21719C 0.658291 2.41245 0.341709 2.41245 0.146447 2.21719C -0.0488155 2.02193 -0.0488155 1.70535 0.146447 1.51008L 1.51008 0.146447C 1.70535 -0.0488155 2.02193 -0.0488155 2.21719 0.146447C 2.41245 0.341709 2.41245 0.658291 2.21719 0.853553L 0.853553 2.21719Z"/>
</defs>
</svg>
