<svg width="17" height="17" viewBox="0 0 17 17" version="1.1" xmlns="http://www.w3.org/2000/svg" xmlns:xlink="http://www.w3.org/1999/xlink">
<title>user-symbol-person</title>
<desc>Created using Figma</desc>
<g id="Canvas" transform="translate(-6954 -57)">
<g id="user-symbol-person">
<g id="Oval">
<use xlink:href="#path0_fill" transform="translate(6958.42 60.4)" fill="#5A5F61"/>
</g>
<g id="Shape">
<use xlink:href="#path1_fill" transform="translate(6954 57.6646)" fill="#5A5F61"/>
</g>
</g>
</g>
<defs>
<path id="path0_fill" d="M 3.74 7.48C 5.80554 7.48 7.48 5.80554 7.48 3.74C 7.48 1.67445 5.80554 0 3.74 0C 1.67445 0 0 1.67445 0 3.74C 0 5.80554 1.67445 7.48 3.74 7.48Z"/>
<path id="path1_fill" fill-rule="evenodd" d="M 14.896 3.55501C 16.917 6.51103 16.7749 10.4394 14.5454 13.2414L 14.5112 13.2346C 12.9624 15.1676 10.6196 16.2925 8.14308 16.2925C 5.66603 16.2925 3.32326 15.1676 1.77492 13.2346C 0.626966 11.7981 0.000989508 10.0142 1.29453e-05 8.17542C -0.00633471 4.59452 2.32228 1.42778 5.74269 0.366924C 9.16261 -0.693936 12.875 0.598995 14.896 3.55501ZM 14.2422 5.13438C 13.0903 2.83064 10.7354 1.37543 8.15968 1.37543C 5.58449 1.37543 3.22951 2.83064 2.07765 5.13438C 0.925794 7.4381 1.17433 10.1949 2.71974 12.2554C 4.41066 11.4057 6.26857 10.9413 8.15968 10.8954C 10.0513 10.9413 11.9092 11.4057 13.6001 12.2554C 15.1455 10.1949 15.3941 7.4381 14.2422 5.13438Z"/>
</defs>
</svg>
