<svg width="18" height="20" viewBox="0 0 18 20" version="1.1" xmlns="http://www.w3.org/2000/svg" xmlns:xlink="http://www.w3.org/1999/xlink">
<g id="Canvas" fill="none">
<g id="printer">
<g id="Line_Icons">
<g id="Group">
<g id="Shape">
<path fill-rule="evenodd" clip-rule="evenodd" d="M 16.668 2.5C 16.668 1.12167 15.5469 0 14.168 0L 12.5 0L 12.5 1.66667L 4.16797 1.66667L 4.16797 0L 2.5 0C 1.12109 0 0 1.12167 0 2.5L 0 10L 2.5 10L 2.5 13.3333L 14.168 13.3333L 14.168 10L 16.668 10L 16.668 2.5ZM 12.5 11.6667L 4.16797 11.6667L 4.16797 8.33333L 12.5 8.33333L 12.5 11.6667ZM 14.168 8.33334L 15 8.33334L 15 2.5C 15 2.04001 14.6289 1.66667 14.168 1.66667L 14.168 3.33334L 2.5 3.33334L 2.5 1.66667C 2.04297 1.66667 1.66797 2.04001 1.66797 2.5L 1.66797 8.33334L 2.5 8.33334L 2.5 6.66667L 14.168 6.66667L 14.168 8.33334Z" transform="translate(0.667969 6.66666)" fill="white"/>
</g>
<g id="Shape_2">
<path d="M 1.66667 1.66667L 10 1.66667L 10 5L 11.6667 5L 11.6667 0L 0 0L 0 5L 1.66667 5L 1.66667 1.66667Z" transform="translate(3.16797 0.833328)" fill="white"/>
</g>
<g id="Oval">
<path d="M 0.833333 1.66667C 1.29357 1.66667 1.66667 1.29357 1.66667 0.833333C 1.66667 0.373096 1.29357 0 0.833333 0C 0.373096 0 0 0.373096 0 0.833333C 0 1.29357 0.373096 1.66667 0.833333 1.66667Z" transform="translate(12.3359 10.8333)" fill="white"/>
</g>
</g>
</g>
</g>
</g>
</svg>

