<svg width="20" height="21" viewBox="0 0 20 21" version="1.1" xmlns="http://www.w3.org/2000/svg" xmlns:xlink="http://www.w3.org/1999/xlink">
<title>bookmark-document</title>
<desc>Created using Figma</desc>
<g id="Canvas" transform="translate(-15861 -305)">
<g id="bookmark-document">
<g id="Line_Icons">
<g id="Group">
<g id="Shape">
<use xlink:href="#path0_fill" transform="translate(15861 305)"/>
</g>
<g id="Rectangle-path">
<use xlink:href="#path1_fill" transform="translate(15873 311)" fill="#DE4E2A"/>
</g>
<g id="Rectangle-path">
<use xlink:href="#path1_fill" transform="translate(15873 314)" fill="#DE4E2A"/>
</g>
<g id="Rectangle-path">
<use xlink:href="#path1_fill" transform="translate(15873 317)" fill="#DE4E2A"/>
</g>
<g id="Rectangle-path">
<use xlink:href="#path2_fill" transform="translate(15865 320)" fill="#DE4E2A"/>
</g>
</g>
</g>
</g>
</g>
<defs>
<path id="path0_fill" fill-rule="evenodd" d="M 18 2L 11 2L 11 1C 11 0.446991 10.5527 0 10 0L 4 0C 3.44727 0 3 0.446991 3 1L 3 2L 2 2C 0.896484 2 0 2.896 0 4L 0 19C 0 20.104 0.896484 21 2 21L 18 21C 19.1035 21 20 20.104 20 19L 20 4C 20 2.896 19.1035 2 18 2ZM 5 2L 9 2L 9 10.586L 7.70703 9.293C 7.51172 9.09799 7.25586 9 7 9C 6.74414 9 6.48828 9.09799 6.29297 9.293L 5 10.586L 5 2ZM 2 19L 17.9971 19L 18 4L 11 4L 11 13C 11 13.404 10.7559 13.77 10.3828 13.924C 10.3154 13.9518 10.2461 13.9718 10.1768 13.9843C 10.1182 13.9948 10.0586 14 10 14C 9.74023 14 9.48438 13.898 9.29297 13.707L 7 11.414L 4.70703 13.707C 4.53809 13.8752 4.32031 13.9738 4.09375 13.9953C 3.93457 14.0103 3.77148 13.9875 3.61719 13.924C 3.24414 13.77 3 13.404 3 13L 3 4L 2 4L 2 19Z"/>
<path id="path1_fill" d="M 0 0L 4 0L 4 2L 0 2L 0 0Z"/>
<path id="path2_fill" d="M 0 0L 12 0L 12 2L 0 2L 0 0Z"/>
</defs>
</svg>
