<svg width="15" height="17" viewBox="0 0 15 17" version="1.1" xmlns="http://www.w3.org/2000/svg" xmlns:xlink="http://www.w3.org/1999/xlink">
<title>Combined Shape</title>
<desc>Created using Figma</desc>
<g id="Canvas" transform="translate(-7115 -57)">
<g id="Combined Shape" opacity="0.2">
<use xlink:href="#path0_fill" transform="translate(7115 57)" fill="#FFFFFF"/>
</g>
</g>
<defs>
<path id="path0_fill" fill-rule="evenodd" d="M 5.45459 0L 9.54541 0C 10.2983 0 10.9092 0.610519 10.9092 1.36364L 10.9092 2.04546L 9.54541 2.04546L 9.54541 1.36364L 5.45459 1.36364L 5.45459 2.04546L 4.09082 2.04546L 4.09082 1.36364C 4.09082 0.610519 4.70117 0 5.45459 0ZM 1.36377 6.13636C 0.610352 6.13636 0 5.52584 0 4.77273L 0 3.40909C 0 2.65598 0.610352 2.04546 1.36377 2.04546L 4.09082 2.04546C 4.09082 2.79857 4.70117 3.40909 5.45459 3.40909L 1.36377 3.40909L 1.36377 4.77273L 2.72754 4.77273C 1.97412 4.77273 1.36377 5.38325 1.36377 6.13636ZM 13.6362 6.13636L 13.6367 15C 13.6367 15.7531 13.0259 16.3636 12.2729 16.3636L 2.72754 16.3636C 1.97412 16.3636 1.36377 15.7531 1.36377 15L 1.36377 6.13636L 2.72705 6.13636L 2.72705 15L 12.2725 15L 12.2725 6.13636L 13.6362 6.13636ZM 13.6362 6.13636C 14.3896 6.13636 15 5.52584 15 4.77273L 15 3.40909C 15 2.65598 14.3896 2.04546 13.6362 2.04546L 10.9092 2.04546C 10.9092 2.79857 10.2983 3.40909 9.54541 3.40909L 13.6367 3.40909L 13.6367 4.77273L 12.2729 4.77273C 13.0259 4.77273 13.6367 5.38325 13.6362 6.13636ZM 4.77246 8.18182C 4.396 8.18182 4.09082 8.48708 4.09082 8.86363L 4.09082 12.2727C 4.09082 12.6493 4.396 12.9545 4.77246 12.9545C 5.14941 12.9545 5.45459 12.6493 5.45459 12.2727L 5.45459 8.86363C 5.45459 8.48708 5.14941 8.18182 4.77246 8.18182ZM 6.81836 8.86363C 6.81836 8.48708 7.12354 8.18182 7.5 8.18182C 7.87695 8.18182 8.18213 8.48708 8.18213 8.86363L 8.18213 12.2727C 8.18213 12.6493 7.87695 12.9545 7.5 12.9545C 7.12354 12.9545 6.81836 12.6493 6.81836 12.2727L 6.81836 8.86363ZM 10.2271 8.18182C 9.85059 8.18182 9.54541 8.48708 9.54541 8.86363L 9.54541 12.2727C 9.54541 12.6493 9.85059 12.9545 10.2271 12.9545C 10.604 12.9545 10.9092 12.6493 10.9092 12.2727L 10.9092 8.86363C 10.9092 8.48708 10.604 8.18182 10.2271 8.18182Z"/>
</defs>
</svg>
