<svg width="21" height="20" viewBox="0 0 21 20" version="1.1" xmlns="http://www.w3.org/2000/svg" xmlns:xlink="http://www.w3.org/1999/xlink">
<title>Line_Icons</title>
<desc>Created using Figma</desc>
<g id="Canvas" transform="translate(726 -908)">
<g id="Line_Icons">
<g id="Group">
<g id="Shape">
<use xlink:href="#path0_fill" transform="translate(-725.6 908.001)" fill="#43496A"/>
</g>
<g id="Shape">
<use xlink:href="#path1_fill" transform="translate(-719.307 914.294)" fill="#43496A"/>
</g>
</g>
</g>
</g>
<defs>
<path id="path0_fill" fill-rule="evenodd" d="M 0 10C 0 4.48602 4.48602 0 10 0C 15.514 0 20 4.48602 20 10C 20 15.514 15.514 20 10 20C 4.48602 20 0 15.514 0 10ZM 2 10C 2 14.411 5.58899 18 10 18C 14.411 18 18 14.411 18 10C 18 5.58899 14.411 2 10 2C 5.58899 2 2 5.58899 2 10Z"/>
<path id="path1_fill" d="M 6 0L 3.707 2.293L 1.414 0L 0 1.414L 2.293 3.707L 0 6L 1.414 7.414L 3.707 5.121L 6 7.414L 7.414 6L 5.121 3.707L 7.414 1.414L 6 0Z"/>
</defs>
</svg>
