<svg width="19" height="18" viewBox="0 0 19 18" version="1.1" xmlns="http://www.w3.org/2000/svg" xmlns:xlink="http://www.w3.org/1999/xlink">
<title>Group</title>
<desc>Created using Figma</desc>
<g id="Canvas" transform="translate(-6828 220)">
<g id="Group">
<g id="Shape">
<use xlink:href="#path0_fill" transform="translate(6828.6 -220)" fill="#A9AAAD"/>
</g>
<g id="Shape">
<use xlink:href="#path1_fill" transform="translate(6831.6 -217)" fill="#A9AAAD"/>
</g>
</g>
</g>
<defs>
<path id="path0_fill" fill-rule="evenodd" d="M 2 18L 16 18C 17.104 18 18 17.102 18 16L 18 2C 18 0.897995 17.104 0 16 0L 2 0C 0.895996 0 0 0.897995 0 2L 0 16C 0 17.103 0.895996 18 2 18ZM 2 16L 2 2L 16 2L 16.002 16L 2 16Z"/>
<path id="path1_fill" fill-rule="evenodd" d="M 9.85693 5L 12 5L 12 7L 9.85889 6.99899C 9.76514 7.36301 9.62109 7.703 9.43506 8.01801L 10.9512 9.535L 9.53711 10.949L 8.021 9.433C 7.7041 9.619 7.36377 9.763 7.00098 9.858L 7.00098 12L 5.00098 12L 5.00098 9.85899C 4.63721 9.76401 4.29688 9.62 3.98096 9.43401L 2.46484 10.95L 1.05078 9.536L 2.56689 8.019C 2.38086 7.70399 2.23682 7.36301 2.14307 7L 0 7L 0 5L 2.14307 5C 2.23584 4.636 2.38086 4.29601 2.56592 3.98L 1.05078 2.464L 2.46484 1.05L 3.97998 2.567C 4.29688 2.38 4.63721 2.237 5 2.142L 5 0L 7 0L 7 2.142C 7.36279 2.23599 7.70312 2.38 8.02002 2.56599L 9.53516 1.05L 10.9492 2.465L 9.43311 3.981C 9.54199 4.16537 9.63672 4.35866 9.71484 4.56004C 9.77051 4.70273 9.81787 4.84947 9.85693 5ZM 4 6C 4 7.103 4.896 8 6 8C 7.104 8 8 7.10201 8 6C 8 4.89799 7.104 4 6 4C 4.896 4 4 4.89799 4 6Z"/>
</defs>
</svg>
