<svg width="12" height="12" viewBox="0 0 12 12" version="1.1" xmlns="http://www.w3.org/2000/svg" xmlns:xlink="http://www.w3.org/1999/xlink">
<g id="Canvas" fill="none">
<g id="synchronize-timeout">
<g id="Line_Icons">
<g id="Group">
<g id="Shape">
<path d="M 0 0L 0 3.5L 2.33333 3.5L 2.33333 2.33333L 1.16667 2.33333L 1.16667 0L 0 0Z" transform="translate(5.41797 3.66667)" fill="#DE4E2A"/>
</g>
<g id="Shape_2">
<path d="M 5.25 0C 3.66625 0 2.20442 0.63525 1.1305 1.71383L 0 0.583333L 0 4.08333L 3.5 4.08333L 1.95475 2.53808C 2.814 1.67475 3.983 1.16667 5.25 1.16667C 7.82308 1.16667 9.91667 3.26025 9.91667 5.83333C 9.91667 8.40642 7.82308 10.5 5.25 10.5L 5.25 11.6667C 8.4665 11.6667 11.0833 9.05042 11.0833 5.83333C 11.0833 2.61625 8.4665 0 5.25 0Z" transform="translate(0.75 0.166672)" fill="black"/>
</g>
</g>
</g>
</g>
</g>
</svg>

