<svg width="9" height="19" viewBox="0 0 9 19" version="1.1" xmlns="http://www.w3.org/2000/svg" xmlns:xlink="http://www.w3.org/1999/xlink">
<title>Icon - weather-forcast-thermometer-thermo-meter-temperature</title>
<desc>Created using Figma</desc>
<g id="Canvas" transform="translate(414 52)">
<g id="Icon - weather-forcast-thermometer-thermo-meter-temperature">
<g id="Shape">
<use xlink:href="#path0_fill" transform="translate(-410.786 -52)"/>
</g>
<g id="Oval">
<use xlink:href="#path1_fill" transform="translate(-409.179 -37.1562)" fill="#DE4E2A"/>
</g>
<g id="Shape">
<use xlink:href="#path2_fill" transform="translate(-408.375 -44.1875)" fill="#DE4E2A"/>
</g>
<g id="Shape">
<use xlink:href="#path3_fill" transform="translate(-414 -39.5)"/>
</g>
<g id="Shape">
<use xlink:href="#path4_fill" transform="translate(-412.393 -41.0625)"/>
</g>
<g id="Shape">
<use xlink:href="#path4_fill" transform="translate(-412.393 -42.625)"/>
</g>
<g id="Shape">
<use xlink:href="#path3_fill" transform="translate(-414 -44.1875)"/>
</g>
<g id="Shape">
<use xlink:href="#path3_fill" transform="translate(-414 -48.875)"/>
</g>
<g id="Shape">
<use xlink:href="#path4_fill" transform="translate(-412.393 -45.75)"/>
</g>
<g id="Shape">
<use xlink:href="#path4_fill" transform="translate(-412.393 -47.3125)"/>
</g>
</g>
</g>
<defs>
<path id="path0_fill" fill-rule="evenodd" d="M 2.81262 18.7626C 3.97873 18.7626 5.0239 18.063 5.43997 17.0039C 5.83392 16.0012 5.58661 14.8731 4.82153 14.1145L 4.82153 1.95312C 4.82153 0.874443 3.92212 0 2.81262 0C 1.70312 0 0.80368 0.874443 0.80368 1.95312L 0.80368 14.1145C 0.0386047 14.8731 -0.208679 16.0012 0.185272 17.0039C 0.601349 18.063 1.64651 18.7626 2.81262 18.7626ZM 4.01801 1.95312L 4.01801 14.2812C 4.01801 14.3924 4.06671 14.4983 4.15192 14.5724C 4.77277 15.1123 4.98654 15.9686 4.68933 16.7251C 4.39212 17.4816 3.64557 17.9813 2.81262 17.9813C 1.97971 17.9813 1.23315 17.4816 0.935944 16.7251C 0.638733 15.9686 0.852509 15.1123 1.47336 14.5724C 1.55856 14.4983 1.60727 14.3924 1.60727 14.2812L 1.60727 1.95312C 1.60727 1.30592 2.14694 0.78125 2.81262 0.78125C 3.47833 0.78125 4.01801 1.30592 4.01801 1.95312Z"/>
<path id="path1_fill" fill-rule="evenodd" d="M 0 1.17188C 0 1.81908 0.539642 2.34375 1.20535 2.34375C 1.87106 2.34375 2.41071 1.81908 2.41071 1.17188C 2.41071 0.524666 1.87106 0 1.20535 0C 0.539642 0 0 0.524666 0 1.17188ZM 1.60712 1.17188C 1.60712 1.38761 1.42725 1.5625 1.20535 1.5625C 0.983429 1.5625 0.803558 1.38761 0.803558 1.17188C 0.803558 0.956139 0.983429 0.78125 1.20535 0.78125C 1.42725 0.78125 1.60712 0.956139 1.60712 1.17188Z"/>
<path id="path2_fill" d="M 0.803571 7.42188C 0.803571 7.63761 0.623686 7.8125 0.401786 7.8125C 0.179886 7.8125 0 7.63761 0 7.42188L 0 0.390625C 0 0.174889 0.179886 0 0.401786 0C 0.623686 0 0.803571 0.174889 0.803571 0.390625L 0.803571 7.42188Z"/>
<path id="path3_fill" d="M 0.401786 0.78125C 0.179886 0.78125 0 0.606361 0 0.390625C 0 0.174889 0.179886 0 0.401786 0L 2.8125 0C 3.0344 0 3.21429 0.174889 3.21429 0.390625C 3.21429 0.606361 3.0344 0.78125 2.8125 0.78125L 0.401786 0.78125Z"/>
<path id="path4_fill" d="M 1.20536 0C 1.42726 0 1.60714 0.174889 1.60714 0.390625C 1.60714 0.606361 1.42726 0.78125 1.20536 0.78125L 0.401786 0.78125C 0.179886 0.78125 0 0.606361 0 0.390625C 0 0.174889 0.179886 0 0.401786 0L 1.20536 0Z"/>
</defs>
</svg>
