<svg width="12" height="13" viewBox="0 0 12 13" version="1.1" xmlns="http://www.w3.org/2000/svg" xmlns:xlink="http://www.w3.org/1999/xlink">
<g id="Canvas" fill="none">
<g id="icon-trash">
<g id="Combined Shape">
<path fill-rule="evenodd" clip-rule="evenodd" d="M 4.36523 0L 7.63672 0C 8.24023 0 8.72852 0.477539 8.72852 1.06665L 8.72852 1.59998L 7.63672 1.59998L 7.63672 1.06665L 4.36328 1.06665L 4.36328 1.59998L 3.27344 1.59998L 3.27344 1.06665C 3.27344 0.876831 3.32422 0.698547 3.41406 0.544189C 3.47266 0.44281 3.54688 0.351685 3.63477 0.274353C 3.69727 0.21936 3.76562 0.171265 3.83984 0.131348C 3.91992 0.088623 4.00391 0.0552979 4.09375 0.0328979C 4.17969 0.0114136 4.27148 0 4.36523 0ZM 1.0918 4.79999C 0.488281 4.79999 0 4.32239 0 3.73334L 0 2.66663C 0 2.07751 0.488281 1.59998 1.0918 1.59998L 3.27344 1.59998C 3.27344 2.18909 3.76172 2.66669 4.36523 2.66669L 1.0918 2.66669L 1.0918 3.73334L 2.18359 3.73334C 1.86133 3.73334 1.57031 3.86981 1.37109 4.08685C 1.19727 4.27582 1.0918 4.52582 1.0918 4.79999ZM 10.9082 4.79999L 10.9102 11.7333C 10.9102 12.3224 10.4219 12.8 9.81836 12.8L 2.18359 12.8C 1.8457 12.8 1.54492 12.6503 1.34375 12.4153C 1.24805 12.3032 1.17578 12.1716 1.13281 12.0276C 1.10547 11.9341 1.0918 11.8354 1.0918 11.7333L 1.0918 4.79999L 2.18164 4.79999L 2.18164 11.7333L 9.81836 11.7333L 9.81836 4.79999L 10.9082 4.79999ZM 10.9082 4.79999C 11.5117 4.79999 12 4.32239 12 3.73334L 12 2.66663C 12 2.07751 11.5117 1.59998 10.9082 1.59998L 8.72852 1.59998C 8.72852 2.18909 8.24023 2.66669 7.63672 2.66669L 10.9102 2.66669L 10.9102 3.73334L 9.81836 3.73334C 10.0371 3.73334 10.2402 3.79547 10.4102 3.90259C 10.4531 3.9303 10.4961 3.961 10.5352 3.99445C 10.5977 4.04803 10.6543 4.10858 10.7031 4.17487C 10.752 4.23956 10.793 4.30975 10.8242 4.38428C 10.8789 4.51208 10.9102 4.65253 10.9082 4.79999ZM 3.81836 6.40002C 3.51758 6.40002 3.27344 6.64423 3.27344 6.9455L 3.27344 9.58789L 3.2793 9.67468C 3.30078 9.80121 3.36523 9.91321 3.45703 9.99487C 3.55273 10.081 3.67969 10.1334 3.81836 10.1334C 4.12109 10.1334 4.36523 9.88916 4.36523 9.58789L 4.36523 6.9455C 4.36523 6.64423 4.12109 6.40002 3.81836 6.40002ZM 5.45508 6.9455C 5.45508 6.64423 5.69922 6.40002 6 6.40002C 6.30273 6.40002 6.54688 6.64423 6.54688 6.9455L 6.54688 9.58789C 6.54688 9.88916 6.30273 10.1334 6 10.1334C 5.69922 10.1334 5.45508 9.88916 5.45508 9.58789L 5.45508 6.9455ZM 8.18164 6.40002C 7.88086 6.40002 7.63672 6.64423 7.63672 6.9455L 7.63672 9.58789C 7.63672 9.88916 7.88086 10.1334 8.18164 10.1334C 8.31836 10.1334 8.44336 10.0831 8.53906 9.99994C 8.65625 9.89996 8.72852 9.75244 8.72852 9.58789L 8.72852 6.9455C 8.72852 6.64423 8.48438 6.40002 8.18164 6.40002Z" fill="#6C727C"/>
</g>
</g>
</g>
</svg>

