<svg width="12" height="16" viewBox="0 0 12 16" version="1.1" xmlns="http://www.w3.org/2000/svg" xmlns:xlink="http://www.w3.org/1999/xlink">
<title>Icon - water-drop</title>
<desc>Created using Figma</desc>
<g id="Canvas" transform="translate(178 50)">
<g id="Icon - water-drop">
<g id="_Path_">
<use xlink:href="#path0_fill" transform="translate(-178 -50)"/>
</g>
<g id="_Path_2">
<use xlink:href="#path1_fill" transform="translate(-176 -41)" fill="#DE4E2A"/>
</g>
</g>
</g>
<defs>
<path id="path0_fill" fill-rule="evenodd" d="M 6.66878 0.399258C 6.56636 0.299305 6.4794 0.216518 6.42403 0.16568C 6.18336 -0.0552254 5.81664 -0.0552254 5.57597 0.16568C 5.5206 0.216518 5.43364 0.299305 5.33122 0.399258C 5.13347 0.592243 4.92325 0.80555 4.70609 1.03424C 4.03174 1.74438 3.39346 2.49255 2.81435 3.25889C 1.44078 5.07652 0.544724 6.79863 0.180283 8.39698C 0.0605774 8.92202 0 9.42991 0 9.92C 0 13.2815 2.68277 16 6 16C 9.31723 16 12 13.2815 12 9.92C 12 9.42991 11.9394 8.92202 11.8197 8.39698C 11.4553 6.79863 10.5592 5.07652 9.18565 3.25889C 8.60654 2.49255 7.96826 1.74438 7.29391 1.03424C 7.07675 0.80555 6.86653 0.592243 6.66878 0.399258ZM 5.76932 0.860249C 5.57741 1.04753 5.37285 1.25509 5.16118 1.478C 5.42328 1.20199 5.61427 1.01365 5.80664 0.847317L 6.02243 0.660748C 6.04459 0.681374 6.07101 0.706337 6.10085 0.734818C 6.13893 0.771183 6.18254 0.813286 6.22981 0.859413L 6.02444 0.659L 6.02243 0.660748L 6 0.639999C 5.94992 0.685974 5.86746 0.764481 5.76932 0.860249ZM 5.61627 1.92176C 5.76598 1.76412 5.89 1.63781 6.00281 1.52956C 6.12598 1.65339 6.25342 1.78455 6.38371 1.92176C 7.02567 2.59778 7.6333 3.31 8.18277 4.03711C 9.4491 5.71284 10.2694 7.28368 10.589 8.68513C 10.6875 9.11728 10.7368 9.52914 10.7368 9.92C 10.7368 12.5745 8.6196 14.72 6 14.72C 3.38039 14.72 1.26315 12.5745 1.26315 9.92C 1.26315 9.52914 1.31248 9.11728 1.41103 8.68513C 1.73056 7.28368 2.55089 5.71284 3.81723 4.03711C 4.3667 3.31 4.97433 2.59778 5.61627 1.92176Z"/>
<path id="path1_fill" d="M 3.69231 3.38462C 3.86224 3.38462 4 3.52237 4 3.69231C 4 3.86224 3.86224 4 3.69231 4C 1.67622 4 0 2.32378 0 0.307692C 0 0.137759 0.137759 0 0.307692 0C 0.477626 0 0.615385 0.137759 0.615385 0.307692C 0.615385 1.98391 2.01609 3.38462 3.69231 3.38462Z"/>
</defs>
</svg>
