<svg width="7" height="12" viewBox="0 0 7 12" version="1.1" xmlns="http://www.w3.org/2000/svg" xmlns:xlink="http://www.w3.org/1999/xlink">
<g id="Canvas" fill="none">
<g id="arrow-point-direction-move-navigation-28">
<g id="Shape">
<path d="M 0.0577833 0.352338C -0.0217483 0.269192 -0.0188177 0.137315 0.0643289 0.0577833C 0.147476 -0.0217483 0.279352 -0.0188177 0.358884 0.0643289L 4.94222 4.856C 5.01926 4.93654 5.01926 5.06346 4.94222 5.144L 0.358884 9.93567C 0.279352 10.0188 0.147476 10.0217 0.0643289 9.94222C -0.0188177 9.86269 -0.0217483 9.73081 0.0577833 9.64766L 4.50337 5L 0.0577833 0.352338Z" transform="translate(1 1)" fill="white"/>
<path d="M 0.0577833 0.352338C -0.0217483 0.269192 -0.0188177 0.137315 0.0643289 0.0577833C 0.147476 -0.0217483 0.279352 -0.0188177 0.358884 0.0643289L 4.94222 4.856C 5.01926 4.93654 5.01926 5.06346 4.94222 5.144L 0.358884 9.93567C 0.279352 10.0188 0.147476 10.0217 0.0643289 9.94222C -0.0188177 9.86269 -0.0217483 9.73081 0.0577833 9.64766L 4.50337 5L 0.0577833 0.352338Z" transform="translate(1 1)" stroke="white"/>
</g>
</g>
</g>
</svg>

