<svg width="15" height="17" viewBox="0 0 15 17" version="1.1" xmlns="http://www.w3.org/2000/svg" xmlns:xlink="http://www.w3.org/1999/xlink">
<title>Combined Shape</title>
<desc>Created using Figma</desc>
<g id="Canvas" transform="translate(-16445 147)">
<g id="Combined Shape">
<use xlink:href="#path0_fill" transform="translate(16445 -147)" fill="#FFFFFF"/>
</g>
</g>
<defs>
<path id="path0_fill" fill-rule="evenodd" d="M 5.45508 0L 9.54688 0C 10.2988 0 10.9102 0.610519 10.9102 1.36363L 10.9102 2.04546L 9.54688 2.04546L 9.54688 1.36363L 5.45508 1.36363L 5.45508 2.04546L 4.0918 2.04546L 4.0918 1.36363C 4.0918 0.610519 4.70312 0 5.45508 0ZM 1.36328 6.13637C 0.611328 6.13637 0 5.52585 0 4.77274L 0 3.40909C 0 2.65598 0.611328 2.04546 1.36328 2.04546L 4.0918 2.04546C 4.0918 2.79857 4.70312 3.40909 5.45508 3.40909L 1.36328 3.40909L 1.36328 4.77272L 2.72656 4.77272C 1.97461 4.77272 1.36328 5.38324 1.36328 6.13637ZM 13.6367 6.13637L 13.6367 15C 13.6367 15.7531 13.0254 16.3636 12.2715 16.3636L 2.72656 16.3636C 1.97461 16.3636 1.36328 15.7531 1.36328 15L 1.36328 6.13637L 2.72656 6.13637L 2.72656 15L 12.2715 15L 12.2715 6.13637L 13.6367 6.13637ZM 13.6367 6.13637C 14.3887 6.13637 15 5.52585 15 4.77274L 15 3.40909C 15 2.65598 14.3887 2.04546 13.6367 2.04546L 10.9102 2.04546C 10.9102 2.79857 10.2988 3.40909 9.54688 3.40909L 13.6367 3.40909L 13.6367 4.77272L 12.2715 4.77272C 13.0254 4.77272 13.6367 5.38324 13.6367 6.13637ZM 4.77344 8.18182C 4.39648 8.18182 4.0918 8.48709 4.0918 8.86365L 4.0918 12.2727C 4.0918 12.6493 4.39648 12.9545 4.77344 12.9545C 5.15039 12.9545 5.45508 12.6493 5.45508 12.2727L 5.45508 8.86365C 5.45508 8.48709 5.15039 8.18182 4.77344 8.18182ZM 6.81836 8.86365C 6.81836 8.48709 7.12305 8.18182 7.5 8.18182C 7.87695 8.18182 8.18164 8.48709 8.18164 8.86365L 8.18164 12.2727C 8.18164 12.6493 7.87695 12.9545 7.5 12.9545C 7.12305 12.9545 6.81836 12.6493 6.81836 12.2727L 6.81836 8.86365ZM 10.2266 8.18182C 9.84961 8.18182 9.54492 8.48709 9.54492 8.86365L 9.54492 12.2727C 9.54492 12.6493 9.84961 12.9545 10.2266 12.9545C 10.6035 12.9545 10.9082 12.6493 10.9082 12.2727L 10.9082 8.86365C 10.9082 8.48709 10.6035 8.18182 10.2266 8.18182Z"/>
</defs>
</svg>
