<svg width="19" height="18" viewBox="0 0 19 18" version="1.1" xmlns="http://www.w3.org/2000/svg" xmlns:xlink="http://www.w3.org/1999/xlink">
<title>Icon - chat-bubble-circle-edit</title>
<desc>Created using Figma</desc>
<g id="Canvas" transform="translate(-16230 149)">
<g id="Icon - chat-bubble-circle-edit">
<g id="Line_Icons">
<g id="Group">
<g id="Shape">
<use xlink:href="#path0_fill" transform="translate(16230.7 -144.645)" fill="#FFFFFF"/>
</g>
<g id="Shape">
<use xlink:href="#path1_fill" transform="translate(16238.6 -149)" fill="#FFFFFF"/>
</g>
</g>
</g>
</g>
</g>
<defs>
<path id="path0_fill" d="M 13.4341 5.00958C 13.5919 5.47279 13.6877 5.95401 13.6877 6.45036C 13.6877 9.23106 11.1022 11.4931 7.92458 11.4931L 2.37255 11.4931L 3.32923 10.4629C 3.57992 10.1928 3.58641 9.77711 3.34436 9.49904C 2.57066 8.61152 2.16148 7.55759 2.16148 6.45036C 2.16148 3.88361 4.36587 1.76351 7.2042 1.45158L 7.2042 0C 3.56912 0.325616 0.720701 3.09479 0.720701 6.45036C 0.720701 7.70023 1.11043 8.89392 1.85387 9.93416L 0.192657 11.7236C -0.00256848 11.9332 -0.0544364 12.2387 0.0601053 12.5016C 0.174647 12.7638 0.433987 12.9339 0.720701 12.9339L 7.92458 12.9339C 11.8968 12.9339 15.1285 10.0256 15.1285 6.45036C 15.1285 5.96265 15.0608 5.47999 14.9412 5.00958L 13.4341 5.00958Z"/>
<path id="path1_fill" fill-rule="evenodd" d="M 6.99219 0.211258C 6.71094 -0.0704193 6.25586 -0.0704193 5.97363 0.211258L 0.931641 5.25397C 0.839844 5.34691 0.773438 5.46216 0.742188 5.58896L 0.0214844 8.4705C -0.0400391 8.71687 0.0332031 8.97621 0.211914 9.15488C 0.390625 9.33281 0.649414 9.4063 0.895508 9.34433L 3.77637 8.62395C 3.8291 8.61078 3.87988 8.59163 3.92773 8.56717C 3.99512 8.53279 4.05664 8.48795 4.11133 8.43449L 9.1543 3.39177C 9.43555 3.10938 9.43652 2.65482 9.1543 2.37314L 6.99219 0.211258ZM 3.23242 7.27394L 1.70996 7.65503L 2.0918 6.13213L 4.32227 3.90036L 5.46387 5.04289L 3.23242 7.27394ZM 5.34082 2.88173L 6.4834 4.02499L 7.62598 2.88173L 6.4834 1.7392L 5.34082 2.88173Z"/>
</defs>
</svg>
