<svg width="20" height="20" viewBox="0 0 20 20" version="1.1" xmlns="http://www.w3.org/2000/svg" xmlns:xlink="http://www.w3.org/1999/xlink">
<g id="Canvas" fill="none">
<g id="ui-interface-user-user-interface-add-plus">
<g id="Combined Shape">
<path fill-rule="evenodd" clip-rule="evenodd" d="M 0 9.3913C 0 14.578 4.25342 18.7826 9.5 18.7826C 14.7466 18.7826 19 14.578 19 9.3913C 19 4.20463 14.7466 0 9.5 0C 4.25342 0 0 4.20463 0 9.3913ZM 18.208 9.3913C 18.208 14.1458 14.3091 18 9.5 18C 4.69043 18 0.791504 14.1458 0.791504 9.3913C 0.791504 4.63686 4.69043 0.782608 9.5 0.782608C 14.3091 0.782608 18.208 4.63686 18.208 9.3913ZM 4.35156 9.6087C 4.13428 9.6087 3.9585 9.38484 3.9585 9.1087C 3.9585 8.83255 4.13428 8.6087 4.35156 8.6087L 9 8.6087L 9 9.6087L 4.35156 9.6087ZM 10 9.6087L 10 14.6071C 10 14.8241 9.77637 15 9.5 15C 9.22363 15 9 14.8241 9 14.6071L 9 9.6087L 10 9.6087ZM 10 9.6087L 10 8.6087L 14.5654 8.6087C 14.7827 8.6087 14.9585 8.83255 14.9585 9.1087C 14.9585 9.38484 14.7827 9.6087 14.5654 9.6087L 10 9.6087ZM 10 8.6087L 9 8.6087L 9 4.39286C 9 4.17589 9.22363 4 9.5 4C 9.77637 4 10 4.17589 10 4.39286L 10 8.6087Z" transform="translate(0.608887 0.608696)" fill="white"/>
</g>
</g>
</g>
</svg>

