<svg width="24" height="24" viewBox="0 0 24 24" version="1.1" xmlns="http://www.w3.org/2000/svg" xmlns:xlink="http://www.w3.org/1999/xlink">
<title>window-edit</title>
<desc>Created using Figma</desc>
<g id="Canvas" transform="translate(-16236 -304)">
<g id="window-edit">
<g id="Line_Icons">
<g id="Group">
<g id="Shape">
<use xlink:href="#path0_fill" transform="translate(16236 304)"/>
</g>
<g id="Shape">
<use xlink:href="#path1_fill" transform="translate(16247 314.994)" fill="#DE4E2A"/>
</g>
</g>
</g>
</g>
</g>
<defs>
<path id="path0_fill" fill-rule="evenodd" d="M 19.999 6L 2 6L 2 18L 9 18L 9 20L 2 20C 0.897461 20 0 19.103 0 18L 0 2C 0 0.897003 0.897461 0 2 0L 20 0C 21.1025 0 22 0.897003 22 2L 22 8.99399L 19.999 8.99399L 19.999 6ZM 7 2L 7 4L 10 4L 10 2L 7 2ZM 20 4L 12 4L 12 2L 20 2L 20 4ZM 5 4L 5 2L 2 2L 2 4L 5 4Z"/>
<path id="path1_fill" fill-rule="evenodd" d="M 12.707 3.29324L 9.70703 0.293243C 9.31543 -0.0977478 8.68359 -0.0977478 8.29297 0.293243L 1.29297 7.29324C 1.23535 7.35129 1.18457 7.41611 1.14258 7.48605C 1.11816 7.52713 1.09668 7.56998 1.07812 7.61426C 1.05762 7.6608 1.04199 7.70892 1.0293 7.75824L 0.0292969 11.7582C -0.0556641 12.0982 0.0449219 12.4593 0.292969 12.7072C 0.482422 12.8972 0.737305 13.0002 1 13.0002C 1.08105 13.0002 1.16211 12.9903 1.24316 12.9702L 5.24316 11.9702C 5.33008 11.9485 5.41309 11.9153 5.49023 11.8717C 5.56934 11.8272 5.64258 11.7719 5.70703 11.7072L 12.707 4.70724C 13.0977 4.31625 13.0977 3.68427 12.707 3.29324ZM 4.48926 10.0973L 2.375 10.6252L 2.90332 8.51224L 6 5.41525L 7.58594 7.00024L 4.48926 10.0973ZM 7.41406 4.00024L 9 5.58624L 10.5859 4.00024L 9 2.41525L 7.41406 4.00024Z"/>
</defs>
</svg>
