<svg width="13" height="11" viewBox="0 0 13 11" version="1.1" xmlns="http://www.w3.org/2000/svg" xmlns:xlink="http://www.w3.org/1999/xlink">
<g id="Canvas" fill="none">
<g id="construction-blueprint-4">
<g id="Line_Icons">
<g id="Group">
<g id="Shape">
<path fill-rule="evenodd" clip-rule="evenodd" d="M 1.12109 0L 11.1992 0C 11.8164 0 12.3203 0.501755 12.3203 1.12L 12.3203 8.96001C 12.3203 9.57825 11.8164 10.08 11.1992 10.08L 1.12109 10.08C 0.503906 10.08 0 9.57825 0 8.96001L 0 1.12C 0 0.501755 0.503906 0 1.12109 0ZM 9.51953 2.23999L 11.1992 2.23999L 11.1992 1.12L 9.51953 1.12L 9.51953 2.23999ZM 8.40234 6.15999L 8.40234 8.95999L 3.92188 8.95999L 3.92188 6.15999L 2.80078 6.15999L 2.80078 6.72L 1.12109 6.72L 1.12109 3.36L 2.80078 3.36L 2.80078 3.92L 3.92188 3.92L 3.92188 1.12L 8.40234 1.12L 8.40234 3.92L 9.51953 3.92L 9.51953 3.36L 11.1992 3.36L 11.1992 6.72L 9.51953 6.72L 9.51953 6.15999L 8.40234 6.15999ZM 2.80078 2.23999L 2.80078 1.12L 1.12109 1.12L 1.12109 2.23999L 2.80078 2.23999ZM 1.12109 7.84L 2.80078 7.84L 2.80078 8.95999L 1.12109 8.95999L 1.12109 7.84ZM 9.51953 7.84L 9.51953 8.95999L 11.1992 8.95999L 11.1992 7.84L 9.51953 7.84Z" transform="translate(0.558594 0.679993)" fill="black"/>
</g>
<g id="Shape_2">
<path d="M 0 2.24L 1.12 2.24L 1.12 4.48L 2.24 4.48L 2.24 3.36L 3.36 3.36L 3.36 4.48L 4.48 4.48L 4.48 2.24L 5.6 2.24L 2.8 0L 0 2.24Z" transform="translate(3.91797 3.48)" fill="#DE4E2A"/>
</g>
</g>
</g>
</g>
</g>
</svg>

